<svg width="622" height="118" viewBox="0 0 622 118" fill="none" xmlns="http://www.w3.org/2000/svg">
<path d="M12.4731 51.1587H-9.15851e-05L16.2009 3.14173H31.6517L47.8527 51.1587H35.3796L24.1022 15.2398H23.727L12.4731 51.1587ZM10.8084 32.2614H36.8801V41.077H10.8084V32.2614ZM65.9259 51.8386C62.1277 51.8386 58.8687 51.0571 56.149 49.494C53.4449 47.931 51.3661 45.7583 49.9124 42.9761C48.4588 40.1782 47.732 36.9427 47.732 33.2696C47.732 29.5807 48.4588 26.3452 49.9124 23.563C51.3817 20.7651 53.4684 18.5847 56.1725 17.0216C58.8922 15.4586 62.1355 14.6771 65.9025 14.6771C69.2318 14.6771 72.1312 15.2788 74.6008 16.4824C77.0861 17.6859 79.0243 19.3897 80.4154 21.5936C81.8221 23.7818 82.5646 26.353 82.6427 29.3072H71.928C71.7092 27.4628 71.084 26.017 70.0524 24.9697C69.0364 23.9225 67.7078 23.3989 66.0666 23.3989C64.738 23.3989 63.5735 23.774 62.5732 24.5243C61.5728 25.2589 60.7913 26.353 60.2286 27.8067C59.6815 29.2447 59.408 31.0266 59.408 33.1523C59.408 35.2781 59.6815 37.0756 60.2286 38.5449C60.7913 39.9985 61.5728 41.1004 62.5732 41.8507C63.5735 42.5853 64.738 42.9527 66.0666 42.9527C67.1295 42.9527 68.0673 42.726 68.8801 42.2727C69.7085 41.8194 70.3884 41.1551 70.9199 40.2798C71.4513 39.3889 71.7873 38.3104 71.928 37.0443H82.6427C82.5333 40.0141 81.7909 42.6088 80.4154 44.8283C79.0555 47.0479 77.1408 48.775 74.6712 50.0098C72.2172 51.229 69.3021 51.8386 65.9259 51.8386ZM103.694 51.8386C99.9266 51.8386 96.6754 51.0962 93.9401 49.6113C91.2204 48.1107 89.1259 45.9772 87.6566 43.2106C86.203 40.4283 85.4762 37.1225 85.4762 33.293C85.4762 29.5729 86.2108 26.3218 87.6801 23.5396C89.1493 20.7417 91.2204 18.5691 93.8932 17.0216C96.566 15.4586 99.7156 14.6771 103.342 14.6771C105.905 14.6771 108.25 15.0756 110.376 15.8728C112.501 16.6699 114.338 17.85 115.885 19.4131C117.433 20.9762 118.636 22.9065 119.496 25.2042C120.356 27.4863 120.785 30.1044 120.785 33.0585V35.9189H89.4854V29.2603H110.118C110.102 28.0411 109.813 26.9548 109.25 26.0014C108.687 25.0479 107.914 24.3055 106.929 23.774C105.96 23.2269 104.842 22.9534 103.576 22.9534C102.295 22.9534 101.146 23.2426 100.13 23.8209C99.1138 24.3836 98.3088 25.1573 97.7149 26.142C97.1209 27.1111 96.8083 28.2131 96.777 29.4479V36.2237C96.777 37.693 97.0662 38.9825 97.6445 40.0923C98.2228 41.1864 99.0434 42.0383 100.106 42.6479C101.169 43.2575 102.435 43.5622 103.905 43.5622C104.921 43.5622 105.843 43.4216 106.671 43.1402C107.5 42.8589 108.211 42.4447 108.805 41.8976C109.399 41.3505 109.844 40.6784 110.141 39.8813L120.668 40.1861C120.231 42.5463 119.269 44.6017 117.784 46.3523C116.315 48.0873 114.385 49.4393 111.993 50.4084C109.602 51.3619 106.835 51.8386 103.694 51.8386ZM135.133 3.14173H148.099L158.251 23.2348H158.673L168.825 3.14173H181.79L164.229 35.1218V51.1587H152.694V35.1218L135.133 3.14173ZM193.498 51.8386C189.715 51.8386 186.464 51.0649 183.744 49.5175C181.04 47.9544 178.954 45.7818 177.484 42.9995C176.031 40.2017 175.304 36.9584 175.304 33.2696C175.304 29.5651 176.031 26.3218 177.484 23.5396C178.954 20.7417 181.04 18.5691 183.744 17.0216C186.464 15.4586 189.715 14.6771 193.498 14.6771C197.28 14.6771 200.524 15.4586 203.228 17.0216C205.948 18.5691 208.034 20.7417 209.488 23.5396C210.957 26.3218 211.692 29.5651 211.692 33.2696C211.692 36.9584 210.957 40.2017 209.488 42.9995C208.034 45.7818 205.948 47.9544 203.228 49.5175C200.524 51.0649 197.28 51.8386 193.498 51.8386ZM193.568 43.1871C194.944 43.1871 196.108 42.7651 197.062 41.921C198.015 41.077 198.742 39.9047 199.242 38.4042C199.758 36.9036 200.016 35.1687 200.016 33.1992C200.016 31.1985 199.758 29.4479 199.242 27.9474C198.742 26.4468 198.015 25.2745 197.062 24.4305C196.108 23.5864 194.944 23.1644 193.568 23.1644C192.146 23.1644 190.942 23.5864 189.958 24.4305C188.988 25.2745 188.246 26.4468 187.73 27.9474C187.23 29.4479 186.98 31.1985 186.98 33.1992C186.98 35.1687 187.23 36.9036 187.73 38.4042C188.246 39.9047 188.988 41.077 189.958 41.921C190.942 42.7651 192.146 43.1871 193.568 43.1871ZM239.149 35.6141V15.146H250.591V51.1587H239.665V44.4532H239.29C238.493 46.6571 237.133 48.4077 235.21 49.705C233.303 50.9867 230.998 51.6276 228.294 51.6276C225.84 51.6276 223.683 51.0649 221.823 49.9395C219.963 48.8141 218.517 47.2432 217.485 45.2269C216.454 43.1949 215.93 40.8191 215.914 38.0994V15.146H227.379V35.8486C227.395 37.8024 227.911 39.342 228.927 40.4674C229.943 41.5928 231.326 42.1555 233.077 42.1555C234.218 42.1555 235.242 41.9054 236.148 41.4052C237.07 40.8894 237.797 40.147 238.329 39.1779C238.876 38.1932 239.149 37.0052 239.149 35.6141ZM256.238 51.1587V15.146H267.374V21.7108H267.749C268.406 19.3349 269.477 17.5687 270.962 16.412C272.446 15.2398 274.174 14.6536 276.143 14.6536C276.674 14.6536 277.222 14.6927 277.784 14.7708C278.347 14.8334 278.871 14.935 279.355 15.0756V25.0401C278.808 24.8525 278.089 24.704 277.198 24.5946C276.323 24.4852 275.541 24.4305 274.854 24.4305C273.494 24.4305 272.267 24.7353 271.173 25.3449C270.094 25.9388 269.242 26.7751 268.617 27.8536C268.007 28.9165 267.703 30.1669 267.703 31.6049V51.1587H256.238ZM306.516 3.14173V51.1587H294.91V3.14173H306.516ZM323.616 30.6202V51.1587H312.151V15.146H323.053V21.7577H323.452C324.249 19.5538 325.609 17.8266 327.531 16.5762C329.454 15.3101 331.744 14.6771 334.401 14.6771C336.933 14.6771 339.129 15.2476 340.989 16.3886C342.865 17.514 344.319 19.0927 345.35 21.1246C346.398 23.141 346.913 25.5012 346.898 28.2053V51.1587H335.433V30.4561C335.448 28.4554 334.94 26.8923 333.909 25.7669C332.893 24.6415 331.478 24.0788 329.665 24.0788C328.462 24.0788 327.399 24.3445 326.476 24.876C325.57 25.3918 324.866 26.1342 324.366 27.1033C323.882 28.0724 323.632 29.2447 323.616 30.6202ZM372.673 15.146V23.5864H349.954V15.146H372.673ZM354.713 6.51792H366.178V39.8344C366.178 40.5377 366.288 41.1083 366.507 41.5459C366.741 41.9679 367.077 42.2727 367.515 42.4603C367.952 42.6322 368.476 42.7182 369.086 42.7182C369.523 42.7182 369.984 42.6791 370.469 42.601C370.969 42.5072 371.344 42.429 371.594 42.3665L373.329 50.6429C372.782 50.7992 372.009 50.9946 371.008 51.229C370.023 51.4635 368.843 51.612 367.468 51.6745C364.779 51.7995 362.474 51.4869 360.551 50.7367C358.644 49.9708 357.183 48.7828 356.167 47.1729C355.167 45.563 354.682 43.5388 354.713 41.1004V6.51792ZM393.319 51.8386C389.552 51.8386 386.301 51.0962 383.566 49.6113C380.846 48.1107 378.752 45.9772 377.282 43.2106C375.829 40.4283 375.102 37.1225 375.102 33.293C375.102 29.5729 375.836 26.3218 377.306 23.5396C378.775 20.7417 380.846 18.5691 383.519 17.0216C386.192 15.4586 389.341 14.6771 392.967 14.6771C395.531 14.6771 397.875 15.0756 400.001 15.8728C402.127 16.6699 403.964 17.85 405.511 19.4131C407.058 20.9762 408.262 22.9065 409.122 25.2042C409.981 27.4863 410.411 30.1044 410.411 33.0585V35.9189H379.111V29.2603H399.743C399.728 28.0411 399.439 26.9548 398.876 26.0014C398.313 25.0479 397.539 24.3055 396.555 23.774C395.586 23.2269 394.468 22.9534 393.202 22.9534C391.92 22.9534 390.771 23.2426 389.755 23.8209C388.739 24.3836 387.934 25.1573 387.341 26.142C386.747 27.1111 386.434 28.2131 386.403 29.4479V36.2237C386.403 37.693 386.692 38.9825 387.27 40.0923C387.848 41.1864 388.669 42.0383 389.732 42.6479C390.795 43.2575 392.061 43.5622 393.53 43.5622C394.546 43.5622 395.468 43.4216 396.297 43.1402C397.125 42.8589 397.836 42.4447 398.43 41.8976C399.024 41.3505 399.47 40.6784 399.767 39.8813L410.294 40.1861C409.856 42.5463 408.895 44.6017 407.41 46.3523C405.941 48.0873 404.01 49.4393 401.619 50.4084C399.228 51.3619 396.461 51.8386 393.319 51.8386ZM414.616 51.1587V15.146H425.753V21.7108H426.128C426.784 19.3349 427.855 17.5687 429.34 16.412C430.825 15.2398 432.552 14.6536 434.522 14.6536C435.053 14.6536 435.6 14.6927 436.163 14.7708C436.725 14.8334 437.249 14.935 437.734 15.0756V25.0401C437.187 24.8525 436.468 24.704 435.577 24.5946C434.701 24.4852 433.92 24.4305 433.232 24.4305C431.872 24.4305 430.645 24.7353 429.551 25.3449C428.473 25.9388 427.621 26.7751 426.995 27.8536C426.386 28.9165 426.081 30.1669 426.081 31.6049V51.1587H414.616ZM476.785 15.146L464.429 51.1587H451.299L438.967 15.146H451.041L457.677 39.9516H458.052L464.71 15.146H476.785ZM479.53 51.1587V15.146H490.995V51.1587H479.53ZM485.275 10.9492C483.665 10.9492 482.281 10.4177 481.125 9.35486C479.968 8.27636 479.39 6.97902 479.39 5.46286C479.39 3.96233 479.968 2.68063 481.125 1.61776C482.281 0.539251 483.665 -2.86203e-06 485.275 -2.86203e-06C486.9 -2.86203e-06 488.284 0.539251 489.425 1.61776C490.581 2.68063 491.16 3.96233 491.16 5.46286C491.16 6.97902 490.581 8.27636 489.425 9.35486C488.284 10.4177 486.9 10.9492 485.275 10.9492ZM513.476 51.8386C509.709 51.8386 506.458 51.0962 503.723 49.6113C501.003 48.1107 498.909 45.9772 497.44 43.2106C495.986 40.4283 495.259 37.1225 495.259 33.293C495.259 29.5729 495.994 26.3218 497.463 23.5396C498.932 20.7417 501.003 18.5691 503.676 17.0216C506.349 15.4586 509.498 14.6771 513.125 14.6771C515.688 14.6771 518.033 15.0756 520.158 15.8728C522.284 16.6699 524.121 17.85 525.668 19.4131C527.216 20.9762 528.419 22.9065 529.279 25.2042C530.139 27.4863 530.568 30.1044 530.568 33.0585V35.9189H499.268V29.2603H519.901C519.885 28.0411 519.596 26.9548 519.033 26.0014C518.47 25.0479 517.697 24.3055 516.712 23.774C515.743 23.2269 514.625 22.9534 513.359 22.9534C512.077 22.9534 510.929 23.2426 509.913 23.8209C508.897 24.3836 508.092 25.1573 507.498 26.142C506.904 27.1111 506.591 28.2131 506.56 29.4479V36.2237C506.56 37.693 506.849 38.9825 507.427 40.0923C508.006 41.1864 508.826 42.0383 509.889 42.6479C510.952 43.2575 512.218 43.5622 513.687 43.5622C514.703 43.5622 515.626 43.4216 516.454 43.1402C517.282 42.8589 517.994 42.4447 518.588 41.8976C519.182 41.3505 519.627 40.6784 519.924 39.8813L530.451 40.1861C530.014 42.5463 529.052 44.6017 527.567 46.3523C526.098 48.0873 524.168 49.4393 521.776 50.4084C519.385 51.3619 516.618 51.8386 513.476 51.8386ZM541.116 51.1587L531.737 15.146H543.249L548.102 38.2166H548.407L553.612 15.146H564.843L570.188 38.0525H570.493L575.206 15.146H586.718L577.316 51.1587H565.054L559.427 30.1747H559.028L553.401 51.1587H541.116ZM621.109 26.142L610.582 26.4234C610.472 25.6731 610.175 25.0088 609.691 24.4305C609.206 23.8365 608.573 23.3754 607.792 23.0472C607.026 22.7033 606.135 22.5314 605.119 22.5314C603.79 22.5314 602.657 22.7971 601.719 23.3285C600.797 23.86 600.344 24.579 600.359 25.4856C600.344 26.1889 600.625 26.7985 601.203 27.3143C601.797 27.8301 602.852 28.2443 604.369 28.557L611.309 29.8699C614.904 30.5577 617.576 31.6987 619.327 33.293C621.093 34.8873 621.984 36.9974 622 39.6234C621.984 42.093 621.25 44.2422 619.796 46.0709C618.358 47.8997 616.389 49.3221 613.888 50.3381C611.387 51.3384 608.526 51.8386 605.306 51.8386C600.164 51.8386 596.108 50.7835 593.138 48.6734C590.184 46.5477 588.496 43.7029 588.074 40.1392L599.398 39.8578C599.648 41.1708 600.297 42.1711 601.344 42.8589C602.391 43.5466 603.728 43.8905 605.353 43.8905C606.823 43.8905 608.018 43.617 608.941 43.0699C609.863 42.5228 610.332 41.796 610.347 40.8894C610.332 40.0766 609.972 39.428 609.269 38.9434C608.565 38.4433 607.463 38.0525 605.963 37.7711L599.68 36.5754C596.069 35.9189 593.38 34.7076 591.614 32.9413C589.848 31.1594 588.973 28.893 588.988 26.142C588.973 23.7349 589.613 21.6795 590.911 19.9758C592.208 18.2564 594.053 16.9435 596.444 16.0369C598.835 15.1303 601.657 14.6771 604.908 14.6771C609.785 14.6771 613.63 15.7009 616.443 17.7484C619.257 19.7804 620.812 22.5783 621.109 26.142ZM213.056 117.182L203.677 81.1693H215.189L220.043 104.24H220.347L225.552 81.1693H236.783L242.128 104.076H242.433L247.146 81.1693H258.658L249.256 117.182H236.994L231.367 96.198H230.968L225.341 117.182H213.056ZM261.608 117.182V81.1693H273.073V117.182H261.608ZM267.353 76.9725C265.743 76.9725 264.359 76.441 263.203 75.3782C262.046 74.2997 261.468 73.0023 261.468 71.4862C261.468 69.9856 262.046 68.7039 263.203 67.6411C264.359 66.5625 265.743 66.0233 267.353 66.0233C268.978 66.0233 270.362 66.5625 271.503 67.6411C272.659 68.7039 273.238 69.9856 273.238 71.4862C273.238 73.0023 272.659 74.2997 271.503 75.3782C270.362 76.441 268.978 76.9725 267.353 76.9725ZM299.048 81.1693V89.6097H276.329V81.1693H299.048ZM281.088 72.5412H292.553V105.858C292.553 106.561 292.663 107.132 292.882 107.569C293.116 107.991 293.452 108.296 293.89 108.484C294.327 108.656 294.851 108.741 295.461 108.741C295.898 108.741 296.359 108.702 296.844 108.624C297.344 108.53 297.719 108.452 297.969 108.39L299.704 116.666C299.157 116.822 298.383 117.018 297.383 117.252C296.398 117.487 295.218 117.635 293.843 117.698C291.154 117.823 288.849 117.51 286.926 116.76C285.019 115.994 283.558 114.806 282.542 113.196C281.542 111.586 281.057 109.562 281.088 107.124V72.5412ZM315.486 96.6435V117.182H304.021V69.165H315.111V87.781H315.509C316.322 85.5614 317.65 83.8265 319.495 82.576C321.355 81.3256 323.629 80.7004 326.318 80.7004C328.85 80.7004 331.054 81.2631 332.929 82.3884C334.805 83.4982 336.259 85.0691 337.29 87.101C338.337 89.133 338.853 91.5089 338.838 94.2286V117.182H327.373V96.4794C327.388 94.4786 326.888 92.9156 325.872 91.7902C324.856 90.6648 323.426 90.1021 321.582 90.1021C320.378 90.1021 319.315 90.3678 318.393 90.8993C317.486 91.4151 316.775 92.1575 316.259 93.1266C315.759 94.0957 315.501 95.268 315.486 96.6435Z" fill="#0A0A0A"/>
<path d="M367.264 117.182H354.791L370.992 69.165H386.443L402.644 117.182H390.171L378.894 81.263H378.518L367.264 117.182ZM365.6 98.2847H391.672V107.1H365.6V98.2847ZM417.769 69.165V117.182H406.163V69.165H417.769Z" fill="url(#paint0_radial_3_575)"/>
<defs>
<radialGradient id="paint0_radial_3_575" cx="0" cy="0" r="1" gradientUnits="userSpaceOnUse" gradientTransform="translate(-1.87903 99.7756) rotate(-9.26901) scale(627.332 7385.01)">
<stop offset="0.614085" stop-color="#4285F4"/>
<stop offset="0.682241" stop-color="#4DBAED"/>
</radialGradient>
</defs>
</svg>
