<svg width="263" height="96" viewBox="0 0 263 96" fill="none" xmlns="http://www.w3.org/2000/svg">
<path d="M116.769 88.3044C145.188 87.7558 176.879 85.6316 207.995 79.3174C217.659 77.3565 227.16 75.0222 236.127 71.1473C240.175 69.4458 244.01 67.3965 247.571 65.0315C250.159 63.2177 252.335 61.0142 253.991 58.5305C257.906 52.6948 256.811 46.7073 250.829 42.3656C247.245 39.8194 243.309 37.6558 239.111 35.9229C226.982 30.998 214.257 27.2211 201.163 24.66C190.335 22.5952 179.314 21.3454 168.228 20.9251C166.92 20.9712 165.614 20.8211 164.367 20.4816C163.463 20.1315 162.246 19.046 162.354 18.4157C162.513 17.9212 162.788 17.4592 163.162 17.058C163.536 16.6566 164.002 16.3244 164.532 16.0815C165.642 15.7831 166.815 15.6993 167.968 15.8363C185.982 15.6846 203.381 18.7542 220.316 23.7146C228.57 26.1728 236.658 29.0171 244.545 32.2347C248.738 33.992 252.592 36.2825 255.976 39.0275C263.08 44.6999 264.531 52.3563 260.493 59.896C258.375 63.749 255.213 67.1174 251.267 69.7234C244.34 74.4737 236.373 77.5083 228.077 80.006C212.06 84.8496 195.456 87.604 178.672 89.6349C158.714 92.0496 138.596 93.398 118.44 93.6731C94.2781 94.0003 70.2672 92.95 46.6669 88.1993C37.2465 86.4166 28.1992 83.4216 19.8359 79.3174C14.3144 76.7273 9.47021 73.2046 5.59911 68.9648C-0.56105 61.8686 -1.17707 54.3288 3.36776 46.4856C6.02454 42.1724 9.61504 38.327 13.9496 35.1526C25.1337 26.4573 38.3164 20.6333 52.2795 16.0114C70.4862 9.97729 89.4596 6.67426 108.788 4.64344C133.478 2.2293 158.413 2.26063 183.094 4.7368C204.463 6.75597 225.531 10.094 245.75 16.595C248.337 17.4353 250.829 18.4741 253.348 19.4662C255.1 20.1665 256.236 21.2519 255.483 22.9676C254.922 24.2865 253.225 24.6833 250.966 23.8196C238.235 18.8943 224.696 16.4199 211.129 13.9923C195.246 11.2639 179.15 9.52025 162.971 8.77514C134.377 7.17541 105.663 9.25681 77.7963 14.9493C62.7002 17.9089 48.1759 22.6878 34.6614 29.1418C27.5754 32.4196 21.1135 36.5948 15.4965 41.5252C13.3879 43.4205 11.5161 45.4974 9.91123 47.7227C5.03785 54.6439 5.80448 61.4483 12.3342 67.1907C15.7288 70.0909 19.526 72.6268 23.6416 74.7421C32.7038 79.4924 42.8066 81.9785 53.1557 83.7875C73.0325 87.3123 93.1146 88.3394 116.769 88.3044Z" fill="#737373" fill-opacity="0.3"/>
</svg>
