<svg width="24" height="24" viewBox="0 0 24 24" fill="none" xmlns="http://www.w3.org/2000/svg">
<path d="M12 3.75C8.625 3.75 6 6.375 6 9.75V14.25C6 17.625 8.625 20.25 12 20.25" stroke="black" stroke-width="1.5" stroke-linecap="round" stroke-linejoin="round"/>
<path d="M12 3.75C15.375 3.75 18 6.375 18 9.75V14.25C18 17.625 15.375 20.25 12 20.25" stroke="black" stroke-width="1.5" stroke-linecap="round" stroke-linejoin="round"/>
<path d="M9 8.25C9.41421 8.25 9.75 7.91421 9.75 7.5C9.75 7.08579 9.41421 6.75 9 6.75C8.58579 6.75 8.25 7.08579 8.25 7.5C8.25 7.91421 8.58579 8.25 9 8.25Z" fill="black"/>
<path d="M9 12.75C9.41421 12.75 9.75 12.4142 9.75 12C9.75 11.5858 9.41421 11.25 9 11.25C8.58579 11.25 8.25 11.5858 8.25 12C8.25 12.4142 8.58579 12.75 9 12.75Z" fill="black"/>
<path d="M9 17.25C9.41421 17.25 9.75 16.9142 9.75 16.5C9.75 16.0858 9.41421 15.75 9 15.75C8.58579 15.75 8.25 16.0858 8.25 16.5C8.25 16.9142 8.58579 17.25 9 17.25Z" fill="black"/>
<path d="M9 7.5V12" stroke="black" stroke-linecap="round"/>
<path d="M9 12V16.5" stroke="black" stroke-linecap="round"/>
<path d="M15 8.25C15.4142 8.25 15.75 7.91421 15.75 7.5C15.75 7.08579 15.4142 6.75 15 6.75C14.5858 6.75 14.25 7.08579 14.25 7.5C14.25 7.91421 14.5858 8.25 15 8.25Z" fill="black"/>
<path d="M15 12.75C15.4142 12.75 15.75 12.4142 15.75 12C15.75 11.5858 15.4142 11.25 15 11.25C14.5858 11.25 14.25 11.5858 14.25 12C14.25 12.4142 14.5858 12.75 15 12.75Z" fill="black"/>
<path d="M15 17.25C15.4142 17.25 15.75 16.9142 15.75 16.5C15.75 16.0858 15.4142 15.75 15 15.75C14.5858 15.75 14.25 16.0858 14.25 16.5C14.25 16.9142 14.5858 17.25 15 17.25Z" fill="black"/>
<path d="M15 7.5V12" stroke="black" stroke-linecap="round"/>
<path d="M15 12V16.5" stroke="black" stroke-linecap="round"/>
</svg>
