<svg width="24" height="24" viewBox="0 0 24 24" fill="none" xmlns="http://www.w3.org/2000/svg">
<mask id="path-1-inside-1_12_208" fill="white">
<path d="M20.5 9.39977C20.5 5.39977 17.3 2.09977 13.3 1.99977C9.2 1.89977 5.8 5.19977 5.7 9.19977L3.5 13.6998C3.5 13.7998 3.5 13.7998 3.5 13.8998C3.5 14.1998 3.7 14.3998 4 14.3998H6V16.9998C6 18.0998 6.9 18.9998 8 18.9998H9V21.4998C9 21.7998 9.2 21.9998 9.5 21.9998C9.8 21.9998 10 21.7998 10 21.4998V18.9998H10.5C10.8 18.9998 11 18.7998 11 18.4998C11 18.1998 10.8 17.9998 10.5 17.9998H8C7.4 17.9998 7 17.5998 7 16.9998V13.9998C7 13.6998 6.8 13.4998 6.5 13.4998H4.8L6.7 9.59977C6.7 9.49977 6.8 9.49977 6.7 9.39977C6.7 5.89977 9.5 2.99977 13 2.99977C16.5 2.99977 19.4 5.79977 19.5 9.29977L17.4 17.1998C17.4 17.2998 17.4 17.3998 17.4 17.4998L18.5 21.6998C18.6 21.8998 18.8 22.0998 19 22.0998H19.1C19.4 21.9998 19.5 21.7998 19.5 21.4998L18.5 17.3998L20.6 9.59977C20.5 9.49977 20.5 9.39977 20.5 9.39977Z"/>
</mask>
<path d="M20.5 9.39977C20.5 5.39977 17.3 2.09977 13.3 1.99977C9.2 1.89977 5.8 5.19977 5.7 9.19977L3.5 13.6998C3.5 13.7998 3.5 13.7998 3.5 13.8998C3.5 14.1998 3.7 14.3998 4 14.3998H6V16.9998C6 18.0998 6.9 18.9998 8 18.9998H9V21.4998C9 21.7998 9.2 21.9998 9.5 21.9998C9.8 21.9998 10 21.7998 10 21.4998V18.9998H10.5C10.8 18.9998 11 18.7998 11 18.4998C11 18.1998 10.8 17.9998 10.5 17.9998H8C7.4 17.9998 7 17.5998 7 16.9998V13.9998C7 13.6998 6.8 13.4998 6.5 13.4998H4.8L6.7 9.59977C6.7 9.49977 6.8 9.49977 6.7 9.39977C6.7 5.89977 9.5 2.99977 13 2.99977C16.5 2.99977 19.4 5.79977 19.5 9.29977L17.4 17.1998C17.4 17.2998 17.4 17.3998 17.4 17.4998L18.5 21.6998C18.6 21.8998 18.8 22.0998 19 22.0998H19.1C19.4 21.9998 19.5 21.7998 19.5 21.4998L18.5 17.3998L20.6 9.59977C20.5 9.49977 20.5 9.39977 20.5 9.39977Z" fill="black"/>
<path d="M20.5 9.39977H18.5V9.39978L20.5 9.39977ZM13.3 1.99977L13.35 0.000397444L13.3488 0.000367761L13.3 1.99977ZM5.7 9.19977L7.49677 10.0782L7.68847 9.68608L7.69938 9.24976L5.7 9.19977ZM3.5 13.6998L1.70323 12.8214L1.5 13.2371V13.6998H3.5ZM6 14.3998H8V12.3998H6V14.3998ZM9 18.9998H11V16.9998H9V18.9998ZM10 18.9998V16.9998H8V18.9998H10ZM4.8 13.4998L3.00202 12.6238L1.60092 15.4998H4.8V13.4998ZM6.7 9.59977L8.49798 10.4757L8.7 10.061V9.59977H6.7ZM6.7 9.39977H4.7V10.2282L5.28579 10.814L6.7 9.39977ZM19.5 9.29977L21.4329 9.81358L21.5075 9.53293L21.4992 9.24265L19.5 9.29977ZM17.4 17.1998L15.4671 16.686L15.4 16.9385V17.1998H17.4ZM17.4 17.4998H15.4V17.7573L15.4653 18.0065L17.4 17.4998ZM18.5 21.6998L16.5653 22.2065L16.618 22.4079L16.7111 22.5942L18.5 21.6998ZM19.1 22.0998V24.0998H19.4246L19.7325 23.9971L19.1 22.0998ZM19.5 21.4998H21.5V21.2594L21.443 21.0259L19.5 21.4998ZM18.5 17.3998L16.5688 16.8798L16.4354 17.3752L16.557 17.8737L18.5 17.3998ZM20.6 9.59977L22.5312 10.1197L22.8318 9.00318L22.0142 8.18556L20.6 9.59977ZM22.5 9.39977C22.5 4.32109 18.4411 0.127677 13.35 0.000397801L13.25 3.99915C16.1589 4.07187 18.5 6.47846 18.5 9.39977H22.5ZM13.3488 0.000367761C8.13958 -0.126685 3.82808 4.05146 3.70062 9.14979L7.69938 9.24976C7.77192 6.34808 10.2604 3.92623 13.2512 3.99918L13.3488 0.000367761ZM3.90323 8.32135L1.70323 12.8214L5.29677 14.5782L7.49677 10.0782L3.90323 8.32135ZM1.5 13.6998C1.5 13.7 1.5 13.7002 1.5 13.7004C1.5 13.7006 1.5 13.7007 1.5 13.7009C1.5 13.7011 1.5 13.7013 1.5 13.7015C1.5 13.7017 1.5 13.7019 1.5 13.7021C1.5 13.7023 1.5 13.7025 1.5 13.7027C1.5 13.7029 1.5 13.7031 1.5 13.7032C1.5 13.7034 1.5 13.7036 1.5 13.7038C1.5 13.704 1.5 13.7042 1.5 13.7044C1.5 13.7046 1.5 13.7048 1.5 13.705C1.5 13.7051 1.5 13.7053 1.5 13.7055C1.5 13.7057 1.5 13.7059 1.5 13.7061C1.5 13.7063 1.5 13.7065 1.5 13.7066C1.5 13.7068 1.5 13.707 1.5 13.7072C1.5 13.7074 1.5 13.7076 1.5 13.7078C1.5 13.7079 1.5 13.7081 1.5 13.7083C1.5 13.7085 1.5 13.7087 1.5 13.7089C1.5 13.709 1.5 13.7092 1.5 13.7094C1.5 13.7096 1.5 13.7098 1.5 13.71C1.5 13.7101 1.5 13.7103 1.5 13.7105C1.5 13.7107 1.5 13.7109 1.5 13.711C1.5 13.7112 1.5 13.7114 1.5 13.7116C1.5 13.7118 1.5 13.7119 1.5 13.7121C1.5 13.7123 1.5 13.7125 1.5 13.7127C1.5 13.7128 1.5 13.713 1.5 13.7132C1.5 13.7134 1.5 13.7136 1.5 13.7137C1.5 13.7139 1.5 13.7141 1.5 13.7143C1.5 13.7144 1.5 13.7146 1.5 13.7148C1.5 13.715 1.5 13.7151 1.5 13.7153C1.5 13.7155 1.5 13.7157 1.5 13.7158C1.5 13.716 1.5 13.7162 1.5 13.7164C1.5 13.7165 1.5 13.7167 1.5 13.7169C1.5 13.7171 1.5 13.7172 1.5 13.7174C1.5 13.7176 1.5 13.7177 1.5 13.7179C1.5 13.7181 1.5 13.7183 1.5 13.7184C1.5 13.7186 1.5 13.7188 1.5 13.7189C1.5 13.7191 1.5 13.7193 1.5 13.7195C1.5 13.7196 1.5 13.7198 1.5 13.72C1.5 13.7201 1.5 13.7203 1.5 13.7205C1.5 13.7206 1.5 13.7208 1.5 13.721C1.5 13.7211 1.5 13.7213 1.5 13.7215C1.5 13.7216 1.5 13.7218 1.5 13.722C1.5 13.7221 1.5 13.7223 1.5 13.7225C1.5 13.7226 1.5 13.7228 1.5 13.723C1.5 13.7231 1.5 13.7233 1.5 13.7235C1.5 13.7236 1.5 13.7238 1.5 13.724C1.5 13.7241 1.5 13.7243 1.5 13.7244C1.5 13.7246 1.5 13.7248 1.5 13.7249C1.5 13.7251 1.5 13.7253 1.5 13.7254C1.5 13.7256 1.5 13.7257 1.5 13.7259C1.5 13.7261 1.5 13.7262 1.5 13.7264C1.5 13.7266 1.5 13.7267 1.5 13.7269C1.5 13.727 1.5 13.7272 1.5 13.7274C1.5 13.7275 1.5 13.7277 1.5 13.7278C1.5 13.728 1.5 13.7282 1.5 13.7283C1.5 13.7285 1.5 13.7286 1.5 13.7288C1.5 13.7289 1.5 13.7291 1.5 13.7293C1.5 13.7294 1.5 13.7296 1.5 13.7297C1.5 13.7299 1.5 13.73 1.5 13.7302C1.5 13.7304 1.5 13.7305 1.5 13.7307C1.5 13.7308 1.5 13.731 1.5 13.7311C1.5 13.7313 1.5 13.7314 1.5 13.7316C1.5 13.7317 1.5 13.7319 1.5 13.7321C1.5 13.7322 1.5 13.7324 1.5 13.7325C1.5 13.7327 1.5 13.7328 1.5 13.733C1.5 13.7331 1.5 13.7333 1.5 13.7334C1.5 13.7336 1.5 13.7337 1.5 13.7339C1.5 13.734 1.5 13.7342 1.5 13.7343C1.5 13.7345 1.5 13.7346 1.5 13.7348C1.5 13.7349 1.5 13.7351 1.5 13.7352C1.5 13.7354 1.5 13.7355 1.5 13.7357C1.5 13.7358 1.5 13.736 1.5 13.7361C1.5 13.7363 1.5 13.7364 1.5 13.7366C1.5 13.7367 1.5 13.7369 1.5 13.737C1.5 13.7372 1.5 13.7373 1.5 13.7375C1.5 13.7376 1.5 13.7378 1.5 13.7379C1.5 13.7381 1.5 13.7382 1.5 13.7383C1.5 13.7385 1.5 13.7386 1.5 13.7388C1.5 13.7389 1.5 13.7391 1.5 13.7392C1.5 13.7394 1.5 13.7395 1.5 13.7397C1.5 13.7398 1.5 13.7399 1.5 13.7401C1.5 13.7402 1.5 13.7404 1.5 13.7405C1.5 13.7407 1.5 13.7408 1.5 13.7409C1.5 13.7411 1.5 13.7412 1.5 13.7414C1.5 13.7415 1.5 13.7417 1.5 13.7418C1.5 13.7419 1.5 13.7421 1.5 13.7422C1.5 13.7424 1.5 13.7425 1.5 13.7426C1.5 13.7428 1.5 13.7429 1.5 13.7431C1.5 13.7432 1.5 13.7433 1.5 13.7435C1.5 13.7436 1.5 13.7438 1.5 13.7439C1.5 13.744 1.5 13.7442 1.5 13.7443C1.5 13.7445 1.5 13.7446 1.5 13.7447C1.5 13.7449 1.5 13.745 1.5 13.7452C1.5 13.7453 1.5 13.7454 1.5 13.7456C1.5 13.7457 1.5 13.7458 1.5 13.746C1.5 13.7461 1.5 13.7463 1.5 13.7464C1.5 13.7465 1.5 13.7467 1.5 13.7468C1.5 13.7469 1.5 13.7471 1.5 13.7472C1.5 13.7473 1.5 13.7475 1.5 13.7476C1.5 13.7477 1.5 13.7479 1.5 13.748C1.5 13.7481 1.5 13.7483 1.5 13.7484C1.5 13.7485 1.5 13.7487 1.5 13.7488C1.5 13.7489 1.5 13.7491 1.5 13.7492C1.5 13.7493 1.5 13.7495 1.5 13.7496C1.5 13.7497 1.5 13.7499 1.5 13.75C1.5 13.7501 1.5 13.7503 1.5 13.7504C1.5 13.7505 1.5 13.7507 1.5 13.7508C1.5 13.7509 1.5 13.7511 1.5 13.7512C1.5 13.7513 1.5 13.7515 1.5 13.7516C1.5 13.7517 1.5 13.7518 1.5 13.752C1.5 13.7521 1.5 13.7522 1.5 13.7524C1.5 13.7525 1.5 13.7526 1.5 13.7527C1.5 13.7529 1.5 13.753 1.5 13.7531C1.5 13.7533 1.5 13.7534 1.5 13.7535C1.5 13.7536 1.5 13.7538 1.5 13.7539C1.5 13.754 1.5 13.7542 1.5 13.7543C1.5 13.7544 1.5 13.7545 1.5 13.7547C1.5 13.7548 1.5 13.7549 1.5 13.755C1.5 13.7552 1.5 13.7553 1.5 13.7554C1.5 13.7556 1.5 13.7557 1.5 13.7558C1.5 13.7559 1.5 13.7561 1.5 13.7562C1.5 13.7563 1.5 13.7564 1.5 13.7566C1.5 13.7567 1.5 13.7568 1.5 13.7569C1.5 13.7571 1.5 13.7572 1.5 13.7573C1.5 13.7574 1.5 13.7576 1.5 13.7577C1.5 13.7578 1.5 13.7579 1.5 13.758C1.5 13.7582 1.5 13.7583 1.5 13.7584C1.5 13.7585 1.5 13.7587 1.5 13.7588C1.5 13.7589 1.5 13.759 1.5 13.7591C1.5 13.7593 1.5 13.7594 1.5 13.7595C1.5 13.7596 1.5 13.7598 1.5 13.7599C1.5 13.76 1.5 13.7601 1.5 13.7602C1.5 13.7604 1.5 13.7605 1.5 13.7606C1.5 13.7607 1.5 13.7608 1.5 13.761C1.5 13.7611 1.5 13.7612 1.5 13.7613C1.5 13.7614 1.5 13.7616 1.5 13.7617C1.5 13.7618 1.5 13.7619 1.5 13.762C1.5 13.7622 1.5 13.7623 1.5 13.7624C1.5 13.7625 1.5 13.7626 1.5 13.7628C1.5 13.7629 1.5 13.763 1.5 13.7631C1.5 13.7632 1.5 13.7633 1.5 13.7635C1.5 13.7636 1.5 13.7637 1.5 13.7638C1.5 13.7639 1.5 13.764 1.5 13.7642C1.5 13.7643 1.5 13.7644 1.5 13.7645C1.5 13.7646 1.5 13.7648 1.5 13.7649C1.5 13.765 1.5 13.7651 1.5 13.7652C1.5 13.7653 1.5 13.7654 1.5 13.7656C1.5 13.7657 1.5 13.7658 1.5 13.7659C1.5 13.766 1.5 13.7661 1.5 13.7663C1.5 13.7664 1.5 13.7665 1.5 13.7666C1.5 13.7667 1.5 13.7668 1.5 13.7669C1.5 13.7671 1.5 13.7672 1.5 13.7673C1.5 13.7674 1.5 13.7675 1.5 13.7676C1.5 13.7677 1.5 13.7679 1.5 13.768C1.5 13.7681 1.5 13.7682 1.5 13.7683C1.5 13.7684 1.5 13.7685 1.5 13.7686C1.5 13.7688 1.5 13.7689 1.5 13.769C1.5 13.7691 1.5 13.7692 1.5 13.7693C1.5 13.7694 1.5 13.7695 1.5 13.7697C1.5 13.7698 1.5 13.7699 1.5 13.77C1.5 13.7701 1.5 13.7702 1.5 13.7703C1.5 13.7704 1.5 13.7706 1.5 13.7707C1.5 13.7708 1.5 13.7709 1.5 13.771C1.5 13.7711 1.5 13.7712 1.5 13.7713C1.5 13.7714 1.5 13.7715 1.5 13.7717C1.5 13.7718 1.5 13.7719 1.5 13.772C1.5 13.7721 1.5 13.7722 1.5 13.7723C1.5 13.7724 1.5 13.7725 1.5 13.7726C1.5 13.7728 1.5 13.7729 1.5 13.773C1.5 13.7731 1.5 13.7732 1.5 13.7733C1.5 13.7734 1.5 13.7735 1.5 13.7736C1.5 13.7737 1.5 13.7738 1.5 13.774C1.5 13.7741 1.5 13.7742 1.5 13.7743C1.5 13.7744 1.5 13.7745 1.5 13.7746C1.5 13.7747 1.5 13.7748 1.5 13.7749C1.5 13.775 1.5 13.7751 1.5 13.7753C1.5 13.7754 1.5 13.7755 1.5 13.7756C1.5 13.7757 1.5 13.7758 1.5 13.7759C1.5 13.776 1.5 13.7761 1.5 13.7762C1.5 13.7763 1.5 13.7764 1.5 13.7765C1.5 13.7766 1.5 13.7767 1.5 13.7769C1.5 13.777 1.5 13.7771 1.5 13.7772C1.5 13.7773 1.5 13.7774 1.5 13.7775C1.5 13.7776 1.5 13.7777 1.5 13.7778C1.5 13.7779 1.5 13.778 1.5 13.7781C1.5 13.7782 1.5 13.7783 1.5 13.7784C1.5 13.7785 1.5 13.7786 1.5 13.7788C1.5 13.7789 1.5 13.779 1.5 13.7791C1.5 13.7792 1.5 13.7793 1.5 13.7794C1.5 13.7795 1.5 13.7796 1.5 13.7797C1.5 13.7798 1.5 13.7799 1.5 13.78C1.5 13.7801 1.5 13.7802 1.5 13.7803C1.5 13.7804 1.5 13.7805 1.5 13.7806C1.5 13.7807 1.5 13.7808 1.5 13.7809C1.5 13.781 1.5 13.7811 1.5 13.7813C1.5 13.7814 1.5 13.7815 1.5 13.7816C1.5 13.7817 1.5 13.7818 1.5 13.7819C1.5 13.782 1.5 13.7821 1.5 13.7822C1.5 13.7823 1.5 13.7824 1.5 13.7825C1.5 13.7826 1.5 13.7827 1.5 13.7828C1.5 13.7829 1.5 13.783 1.5 13.7831C1.5 13.7832 1.5 13.7833 1.5 13.7834C1.5 13.7835 1.5 13.7836 1.5 13.7837C1.5 13.7838 1.5 13.7839 1.5 13.784C1.5 13.7841 1.5 13.7842 1.5 13.7843C1.5 13.7844 1.5 13.7845 1.5 13.7846C1.5 13.7847 1.5 13.7848 1.5 13.7849C1.5 13.785 1.5 13.7851 1.5 13.7852C1.5 13.7853 1.5 13.7854 1.5 13.7855C1.5 13.7856 1.5 13.7857 1.5 13.7858C1.5 13.7859 1.5 13.7861 1.5 13.7862C1.5 13.7863 1.5 13.7864 1.5 13.7865C1.5 13.7866 1.5 13.7867 1.5 13.7868C1.5 13.7869 1.5 13.787 1.5 13.7871C1.5 13.7872 1.5 13.7873 1.5 13.7874C1.5 13.7875 1.5 13.7876 1.5 13.7877C1.5 13.7878 1.5 13.7879 1.5 13.788C1.5 13.7881 1.5 13.7882 1.5 13.7883C1.5 13.7884 1.5 13.7885 1.5 13.7886C1.5 13.7887 1.5 13.7888 1.5 13.7889C1.5 13.789 1.5 13.7891 1.5 13.7892C1.5 13.7893 1.5 13.7894 1.5 13.7895C1.5 13.7896 1.5 13.7897 1.5 13.7898C1.5 13.7899 1.5 13.79 1.5 13.7901C1.5 13.7902 1.5 13.7902 1.5 13.7903C1.5 13.7904 1.5 13.7905 1.5 13.7906C1.5 13.7907 1.5 13.7908 1.5 13.7909C1.5 13.791 1.5 13.7911 1.5 13.7912C1.5 13.7913 1.5 13.7914 1.5 13.7915C1.5 13.7916 1.5 13.7917 1.5 13.7918C1.5 13.7919 1.5 13.792 1.5 13.7921C1.5 13.7922 1.5 13.7923 1.5 13.7924C1.5 13.7925 1.5 13.7926 1.5 13.7927C1.5 13.7928 1.5 13.7929 1.5 13.793C1.5 13.7931 1.5 13.7932 1.5 13.7933C1.5 13.7934 1.5 13.7935 1.5 13.7936C1.5 13.7937 1.5 13.7938 1.5 13.7939C1.5 13.794 1.5 13.7941 1.5 13.7942C1.5 13.7943 1.5 13.7944 1.5 13.7945C1.5 13.7946 1.5 13.7947 1.5 13.7948C1.5 13.7949 1.5 13.795 1.5 13.7951C1.5 13.7952 1.5 13.7953 1.5 13.7954C1.5 13.7955 1.5 13.7956 1.5 13.7957C1.5 13.7958 1.5 13.7959 1.5 13.796C1.5 13.7961 1.5 13.7962 1.5 13.7963C1.5 13.7964 1.5 13.7965 1.5 13.7965C1.5 13.7966 1.5 13.7967 1.5 13.7968C1.5 13.7969 1.5 13.797 1.5 13.7971C1.5 13.7972 1.5 13.7973 1.5 13.7974C1.5 13.7975 1.5 13.7976 1.5 13.7977C1.5 13.7978 1.5 13.7979 1.5 13.798C1.5 13.7981 1.5 13.7982 1.5 13.7983C1.5 13.7984 1.5 13.7985 1.5 13.7986C1.5 13.7987 1.5 13.7988 1.5 13.7989C1.5 13.799 1.5 13.7991 1.5 13.7992C1.5 13.7993 1.5 13.7994 1.5 13.7995C1.5 13.7996 1.5 13.7997 1.5 13.7998C1.5 13.7999 1.5 13.8 1.5 13.8001C1.5 13.8002 1.5 13.8003 1.5 13.8004C1.5 13.8005 1.5 13.8006 1.5 13.8007C1.5 13.8007 1.5 13.8008 1.5 13.8009C1.5 13.801 1.5 13.8011 1.5 13.8012C1.5 13.8013 1.5 13.8014 1.5 13.8015C1.5 13.8016 1.5 13.8017 1.5 13.8018C1.5 13.8019 1.5 13.802 1.5 13.8021C1.5 13.8022 1.5 13.8023 1.5 13.8024C1.5 13.8025 1.5 13.8026 1.5 13.8027C1.5 13.8028 1.5 13.8029 1.5 13.803C1.5 13.8031 1.5 13.8032 1.5 13.8033C1.5 13.8034 1.5 13.8035 1.5 13.8036C1.5 13.8037 1.5 13.8038 1.5 13.8039C1.5 13.804 1.5 13.8041 1.5 13.8042C1.5 13.8043 1.5 13.8044 1.5 13.8045C1.5 13.8046 1.5 13.8047 1.5 13.8048C1.5 13.8049 1.5 13.805 1.5 13.8051C1.5 13.8052 1.5 13.8053 1.5 13.8053C1.5 13.8054 1.5 13.8055 1.5 13.8056C1.5 13.8057 1.5 13.8058 1.5 13.8059C1.5 13.806 1.5 13.8061 1.5 13.8062C1.5 13.8063 1.5 13.8064 1.5 13.8065C1.5 13.8066 1.5 13.8067 1.5 13.8068C1.5 13.8069 1.5 13.807 1.5 13.8071C1.5 13.8072 1.5 13.8073 1.5 13.8074C1.5 13.8075 1.5 13.8076 1.5 13.8077C1.5 13.8078 1.5 13.8079 1.5 13.808C1.5 13.8081 1.5 13.8082 1.5 13.8083C1.5 13.8084 1.5 13.8085 1.5 13.8086C1.5 13.8087 1.5 13.8088 1.5 13.8089C1.5 13.809 1.5 13.8091 1.5 13.8092C1.5 13.8093 1.5 13.8094 1.5 13.8095C1.5 13.8096 1.5 13.8097 1.5 13.8098C1.5 13.8099 1.5 13.81 1.5 13.8101C1.5 13.8102 1.5 13.8103 1.5 13.8104C1.5 13.8105 1.5 13.8106 1.5 13.8107C1.5 13.8108 1.5 13.8109 1.5 13.811C1.5 13.8111 1.5 13.8112 1.5 13.8113C1.5 13.8114 1.5 13.8115 1.5 13.8116C1.5 13.8117 1.5 13.8118 1.5 13.8119C1.5 13.812 1.5 13.8121 1.5 13.8122C1.5 13.8123 1.5 13.8124 1.5 13.8125C1.5 13.8126 1.5 13.8127 1.5 13.8128C1.5 13.8129 1.5 13.813 1.5 13.8131C1.5 13.8132 1.5 13.8133 1.5 13.8134C1.5 13.8135 1.5 13.8136 1.5 13.8137C1.5 13.8138 1.5 13.8139 1.5 13.814C1.5 13.8141 1.5 13.8142 1.5 13.8143C1.5 13.8144 1.5 13.8145 1.5 13.8146C1.5 13.8147 1.5 13.8148 1.5 13.8149C1.5 13.815 1.5 13.8151 1.5 13.8152C1.5 13.8153 1.5 13.8154 1.5 13.8155C1.5 13.8156 1.5 13.8157 1.5 13.8158C1.5 13.8159 1.5 13.816 1.5 13.8161C1.5 13.8162 1.5 13.8163 1.5 13.8164C1.5 13.8165 1.5 13.8166 1.5 13.8167C1.5 13.8169 1.5 13.817 1.5 13.8171C1.5 13.8172 1.5 13.8173 1.5 13.8174C1.5 13.8175 1.5 13.8176 1.5 13.8177C1.5 13.8178 1.5 13.8179 1.5 13.818C1.5 13.8181 1.5 13.8182 1.5 13.8183C1.5 13.8184 1.5 13.8185 1.5 13.8186C1.5 13.8187 1.5 13.8188 1.5 13.8189C1.5 13.819 1.5 13.8191 1.5 13.8192C1.5 13.8193 1.5 13.8194 1.5 13.8195C1.5 13.8196 1.5 13.8197 1.5 13.8198C1.5 13.82 1.5 13.8201 1.5 13.8202C1.5 13.8203 1.5 13.8204 1.5 13.8205C1.5 13.8206 1.5 13.8207 1.5 13.8208C1.5 13.8209 1.5 13.821 1.5 13.8211C1.5 13.8212 1.5 13.8213 1.5 13.8214C1.5 13.8215 1.5 13.8216 1.5 13.8217C1.5 13.8218 1.5 13.8219 1.5 13.8221C1.5 13.8222 1.5 13.8223 1.5 13.8224C1.5 13.8225 1.5 13.8226 1.5 13.8227C1.5 13.8228 1.5 13.8229 1.5 13.823C1.5 13.8231 1.5 13.8232 1.5 13.8233C1.5 13.8234 1.5 13.8235 1.5 13.8237C1.5 13.8238 1.5 13.8239 1.5 13.824C1.5 13.8241 1.5 13.8242 1.5 13.8243C1.5 13.8244 1.5 13.8245 1.5 13.8246C1.5 13.8247 1.5 13.8248 1.5 13.8249C1.5 13.825 1.5 13.8252 1.5 13.8253C1.5 13.8254 1.5 13.8255 1.5 13.8256C1.5 13.8257 1.5 13.8258 1.5 13.8259C1.5 13.826 1.5 13.8261 1.5 13.8262C1.5 13.8264 1.5 13.8265 1.5 13.8266C1.5 13.8267 1.5 13.8268 1.5 13.8269C1.5 13.827 1.5 13.8271 1.5 13.8272C1.5 13.8273 1.5 13.8274 1.5 13.8276C1.5 13.8277 1.5 13.8278 1.5 13.8279C1.5 13.828 1.5 13.8281 1.5 13.8282C1.5 13.8283 1.5 13.8284 1.5 13.8285C1.5 13.8287 1.5 13.8288 1.5 13.8289C1.5 13.829 1.5 13.8291 1.5 13.8292C1.5 13.8293 1.5 13.8294 1.5 13.8296C1.5 13.8297 1.5 13.8298 1.5 13.8299C1.5 13.83 1.5 13.8301 1.5 13.8302C1.5 13.8303 1.5 13.8304 1.5 13.8306C1.5 13.8307 1.5 13.8308 1.5 13.8309C1.5 13.831 1.5 13.8311 1.5 13.8312C1.5 13.8314 1.5 13.8315 1.5 13.8316C1.5 13.8317 1.5 13.8318 1.5 13.8319C1.5 13.832 1.5 13.8321 1.5 13.8323C1.5 13.8324 1.5 13.8325 1.5 13.8326C1.5 13.8327 1.5 13.8328 1.5 13.8329C1.5 13.8331 1.5 13.8332 1.5 13.8333C1.5 13.8334 1.5 13.8335 1.5 13.8336C1.5 13.8338 1.5 13.8339 1.5 13.834C1.5 13.8341 1.5 13.8342 1.5 13.8343C1.5 13.8344 1.5 13.8346 1.5 13.8347C1.5 13.8348 1.5 13.8349 1.5 13.835C1.5 13.8351 1.5 13.8353 1.5 13.8354C1.5 13.8355 1.5 13.8356 1.5 13.8357C1.5 13.8358 1.5 13.836 1.5 13.8361C1.5 13.8362 1.5 13.8363 1.5 13.8364C1.5 13.8366 1.5 13.8367 1.5 13.8368C1.5 13.8369 1.5 13.837 1.5 13.8371C1.5 13.8373 1.5 13.8374 1.5 13.8375C1.5 13.8376 1.5 13.8377 1.5 13.8379C1.5 13.838 1.5 13.8381 1.5 13.8382C1.5 13.8383 1.5 13.8385 1.5 13.8386C1.5 13.8387 1.5 13.8388 1.5 13.8389C1.5 13.8391 1.5 13.8392 1.5 13.8393C1.5 13.8394 1.5 13.8395 1.5 13.8397C1.5 13.8398 1.5 13.8399 1.5 13.84C1.5 13.8402 1.5 13.8403 1.5 13.8404C1.5 13.8405 1.5 13.8406 1.5 13.8408C1.5 13.8409 1.5 13.841 1.5 13.8411C1.5 13.8413 1.5 13.8414 1.5 13.8415C1.5 13.8416 1.5 13.8417 1.5 13.8419C1.5 13.842 1.5 13.8421 1.5 13.8422C1.5 13.8424 1.5 13.8425 1.5 13.8426C1.5 13.8427 1.5 13.8429 1.5 13.843C1.5 13.8431 1.5 13.8432 1.5 13.8434C1.5 13.8435 1.5 13.8436 1.5 13.8437C1.5 13.8439 1.5 13.844 1.5 13.8441C1.5 13.8442 1.5 13.8444 1.5 13.8445C1.5 13.8446 1.5 13.8448 1.5 13.8449C1.5 13.845 1.5 13.8451 1.5 13.8453C1.5 13.8454 1.5 13.8455 1.5 13.8456C1.5 13.8458 1.5 13.8459 1.5 13.846C1.5 13.8462 1.5 13.8463 1.5 13.8464C1.5 13.8465 1.5 13.8467 1.5 13.8468C1.5 13.8469 1.5 13.8471 1.5 13.8472C1.5 13.8473 1.5 13.8474 1.5 13.8476C1.5 13.8477 1.5 13.8478 1.5 13.848C1.5 13.8481 1.5 13.8482 1.5 13.8484C1.5 13.8485 1.5 13.8486 1.5 13.8487C1.5 13.8489 1.5 13.849 1.5 13.8491C1.5 13.8493 1.5 13.8494 1.5 13.8495C1.5 13.8497 1.5 13.8498 1.5 13.8499C1.5 13.8501 1.5 13.8502 1.5 13.8503C1.5 13.8505 1.5 13.8506 1.5 13.8507C1.5 13.8509 1.5 13.851 1.5 13.8511C1.5 13.8513 1.5 13.8514 1.5 13.8515C1.5 13.8517 1.5 13.8518 1.5 13.8519C1.5 13.8521 1.5 13.8522 1.5 13.8523C1.5 13.8525 1.5 13.8526 1.5 13.8528C1.5 13.8529 1.5 13.853 1.5 13.8532C1.5 13.8533 1.5 13.8534 1.5 13.8536C1.5 13.8537 1.5 13.8538 1.5 13.854C1.5 13.8541 1.5 13.8543 1.5 13.8544C1.5 13.8545 1.5 13.8547 1.5 13.8548C1.5 13.8549 1.5 13.8551 1.5 13.8552C1.5 13.8554 1.5 13.8555 1.5 13.8556C1.5 13.8558 1.5 13.8559 1.5 13.8561C1.5 13.8562 1.5 13.8563 1.5 13.8565C1.5 13.8566 1.5 13.8568 1.5 13.8569C1.5 13.857 1.5 13.8572 1.5 13.8573C1.5 13.8575 1.5 13.8576 1.5 13.8577C1.5 13.8579 1.5 13.858 1.5 13.8582C1.5 13.8583 1.5 13.8585 1.5 13.8586C1.5 13.8587 1.5 13.8589 1.5 13.859C1.5 13.8592 1.5 13.8593 1.5 13.8595C1.5 13.8596 1.5 13.8597 1.5 13.8599C1.5 13.86 1.5 13.8602 1.5 13.8603C1.5 13.8605 1.5 13.8606 1.5 13.8608C1.5 13.8609 1.5 13.8611 1.5 13.8612C1.5 13.8613 1.5 13.8615 1.5 13.8616C1.5 13.8618 1.5 13.8619 1.5 13.8621C1.5 13.8622 1.5 13.8624 1.5 13.8625C1.5 13.8627 1.5 13.8628 1.5 13.863C1.5 13.8631 1.5 13.8633 1.5 13.8634C1.5 13.8636 1.5 13.8637 1.5 13.8639C1.5 13.864 1.5 13.8642 1.5 13.8643C1.5 13.8645 1.5 13.8646 1.5 13.8648C1.5 13.8649 1.5 13.8651 1.5 13.8652C1.5 13.8654 1.5 13.8655 1.5 13.8657C1.5 13.8658 1.5 13.866 1.5 13.8661C1.5 13.8663 1.5 13.8664 1.5 13.8666C1.5 13.8667 1.5 13.8669 1.5 13.867C1.5 13.8672 1.5 13.8673 1.5 13.8675C1.5 13.8676 1.5 13.8678 1.5 13.868C1.5 13.8681 1.5 13.8683 1.5 13.8684C1.5 13.8686 1.5 13.8687 1.5 13.8689C1.5 13.869 1.5 13.8692 1.5 13.8693C1.5 13.8695 1.5 13.8697 1.5 13.8698C1.5 13.87 1.5 13.8701 1.5 13.8703C1.5 13.8704 1.5 13.8706 1.5 13.8708C1.5 13.8709 1.5 13.8711 1.5 13.8712C1.5 13.8714 1.5 13.8716 1.5 13.8717C1.5 13.8719 1.5 13.872 1.5 13.8722C1.5 13.8723 1.5 13.8725 1.5 13.8727C1.5 13.8728 1.5 13.873 1.5 13.8732C1.5 13.8733 1.5 13.8735 1.5 13.8736C1.5 13.8738 1.5 13.874 1.5 13.8741C1.5 13.8743 1.5 13.8744 1.5 13.8746C1.5 13.8748 1.5 13.8749 1.5 13.8751C1.5 13.8753 1.5 13.8754 1.5 13.8756C1.5 13.8758 1.5 13.8759 1.5 13.8761C1.5 13.8762 1.5 13.8764 1.5 13.8766C1.5 13.8767 1.5 13.8769 1.5 13.8771C1.5 13.8772 1.5 13.8774 1.5 13.8776C1.5 13.8777 1.5 13.8779 1.5 13.8781C1.5 13.8782 1.5 13.8784 1.5 13.8786C1.5 13.8787 1.5 13.8789 1.5 13.8791C1.5 13.8792 1.5 13.8794 1.5 13.8796C1.5 13.8798 1.5 13.8799 1.5 13.8801C1.5 13.8803 1.5 13.8804 1.5 13.8806C1.5 13.8808 1.5 13.8809 1.5 13.8811C1.5 13.8813 1.5 13.8815 1.5 13.8816C1.5 13.8818 1.5 13.882 1.5 13.8821C1.5 13.8823 1.5 13.8825 1.5 13.8827C1.5 13.8828 1.5 13.883 1.5 13.8832C1.5 13.8834 1.5 13.8835 1.5 13.8837C1.5 13.8839 1.5 13.8841 1.5 13.8842C1.5 13.8844 1.5 13.8846 1.5 13.8848C1.5 13.8849 1.5 13.8851 1.5 13.8853C1.5 13.8855 1.5 13.8856 1.5 13.8858C1.5 13.886 1.5 13.8862 1.5 13.8863C1.5 13.8865 1.5 13.8867 1.5 13.8869C1.5 13.8871 1.5 13.8872 1.5 13.8874C1.5 13.8876 1.5 13.8878 1.5 13.888C1.5 13.8881 1.5 13.8883 1.5 13.8885C1.5 13.8887 1.5 13.8889 1.5 13.889C1.5 13.8892 1.5 13.8894 1.5 13.8896C1.5 13.8898 1.5 13.89 1.5 13.8901C1.5 13.8903 1.5 13.8905 1.5 13.8907C1.5 13.8909 1.5 13.8911 1.5 13.8912C1.5 13.8914 1.5 13.8916 1.5 13.8918C1.5 13.892 1.5 13.8922 1.5 13.8923C1.5 13.8925 1.5 13.8927 1.5 13.8929C1.5 13.8931 1.5 13.8933 1.5 13.8935C1.5 13.8937 1.5 13.8938 1.5 13.894C1.5 13.8942 1.5 13.8944 1.5 13.8946C1.5 13.8948 1.5 13.895 1.5 13.8952C1.5 13.8953 1.5 13.8955 1.5 13.8957C1.5 13.8959 1.5 13.8961 1.5 13.8963C1.5 13.8965 1.5 13.8967 1.5 13.8969C1.5 13.8971 1.5 13.8973 1.5 13.8974C1.5 13.8976 1.5 13.8978 1.5 13.898C1.5 13.8982 1.5 13.8984 1.5 13.8986C1.5 13.8988 1.5 13.899 1.5 13.8992C1.5 13.8994 1.5 13.8996 1.5 13.8998H5.5C5.5 13.8996 5.5 13.8994 5.5 13.8992C5.5 13.899 5.5 13.8988 5.5 13.8986C5.5 13.8984 5.5 13.8982 5.5 13.898C5.5 13.8978 5.5 13.8976 5.5 13.8974C5.5 13.8973 5.5 13.8971 5.5 13.8969C5.5 13.8967 5.5 13.8965 5.5 13.8963C5.5 13.8961 5.5 13.8959 5.5 13.8957C5.5 13.8955 5.5 13.8953 5.5 13.8952C5.5 13.895 5.5 13.8948 5.5 13.8946C5.5 13.8944 5.5 13.8942 5.5 13.894C5.5 13.8938 5.5 13.8937 5.5 13.8935C5.5 13.8933 5.5 13.8931 5.5 13.8929C5.5 13.8927 5.5 13.8925 5.5 13.8923C5.5 13.8922 5.5 13.892 5.5 13.8918C5.5 13.8916 5.5 13.8914 5.5 13.8912C5.5 13.8911 5.5 13.8909 5.5 13.8907C5.5 13.8905 5.5 13.8903 5.5 13.8901C5.5 13.89 5.5 13.8898 5.5 13.8896C5.5 13.8894 5.5 13.8892 5.5 13.889C5.5 13.8889 5.5 13.8887 5.5 13.8885C5.5 13.8883 5.5 13.8881 5.5 13.888C5.5 13.8878 5.5 13.8876 5.5 13.8874C5.5 13.8872 5.5 13.8871 5.5 13.8869C5.5 13.8867 5.5 13.8865 5.5 13.8863C5.5 13.8862 5.5 13.886 5.5 13.8858C5.5 13.8856 5.5 13.8855 5.5 13.8853C5.5 13.8851 5.5 13.8849 5.5 13.8848C5.5 13.8846 5.5 13.8844 5.5 13.8842C5.5 13.8841 5.5 13.8839 5.5 13.8837C5.5 13.8835 5.5 13.8834 5.5 13.8832C5.5 13.883 5.5 13.8828 5.5 13.8827C5.5 13.8825 5.5 13.8823 5.5 13.8821C5.5 13.882 5.5 13.8818 5.5 13.8816C5.5 13.8815 5.5 13.8813 5.5 13.8811C5.5 13.8809 5.5 13.8808 5.5 13.8806C5.5 13.8804 5.5 13.8803 5.5 13.8801C5.5 13.8799 5.5 13.8798 5.5 13.8796C5.5 13.8794 5.5 13.8792 5.5 13.8791C5.5 13.8789 5.5 13.8787 5.5 13.8786C5.5 13.8784 5.5 13.8782 5.5 13.8781C5.5 13.8779 5.5 13.8777 5.5 13.8776C5.5 13.8774 5.5 13.8772 5.5 13.8771C5.5 13.8769 5.5 13.8767 5.5 13.8766C5.5 13.8764 5.5 13.8762 5.5 13.8761C5.5 13.8759 5.5 13.8758 5.5 13.8756C5.5 13.8754 5.5 13.8753 5.5 13.8751C5.5 13.8749 5.5 13.8748 5.5 13.8746C5.5 13.8744 5.5 13.8743 5.5 13.8741C5.5 13.874 5.5 13.8738 5.5 13.8736C5.5 13.8735 5.5 13.8733 5.5 13.8732C5.5 13.873 5.5 13.8728 5.5 13.8727C5.5 13.8725 5.5 13.8723 5.5 13.8722C5.5 13.872 5.5 13.8719 5.5 13.8717C5.5 13.8716 5.5 13.8714 5.5 13.8712C5.5 13.8711 5.5 13.8709 5.5 13.8708C5.5 13.8706 5.5 13.8704 5.5 13.8703C5.5 13.8701 5.5 13.87 5.5 13.8698C5.5 13.8697 5.5 13.8695 5.5 13.8693C5.5 13.8692 5.5 13.869 5.5 13.8689C5.5 13.8687 5.5 13.8686 5.5 13.8684C5.5 13.8683 5.5 13.8681 5.5 13.868C5.5 13.8678 5.5 13.8676 5.5 13.8675C5.5 13.8673 5.5 13.8672 5.5 13.867C5.5 13.8669 5.5 13.8667 5.5 13.8666C5.5 13.8664 5.5 13.8663 5.5 13.8661C5.5 13.866 5.5 13.8658 5.5 13.8657C5.5 13.8655 5.5 13.8654 5.5 13.8652C5.5 13.8651 5.5 13.8649 5.5 13.8648C5.5 13.8646 5.5 13.8645 5.5 13.8643C5.5 13.8642 5.5 13.864 5.5 13.8639C5.5 13.8637 5.5 13.8636 5.5 13.8634C5.5 13.8633 5.5 13.8631 5.5 13.863C5.5 13.8628 5.5 13.8627 5.5 13.8625C5.5 13.8624 5.5 13.8622 5.5 13.8621C5.5 13.8619 5.5 13.8618 5.5 13.8616C5.5 13.8615 5.5 13.8613 5.5 13.8612C5.5 13.8611 5.5 13.8609 5.5 13.8608C5.5 13.8606 5.5 13.8605 5.5 13.8603C5.5 13.8602 5.5 13.86 5.5 13.8599C5.5 13.8597 5.5 13.8596 5.5 13.8595C5.5 13.8593 5.5 13.8592 5.5 13.859C5.5 13.8589 5.5 13.8587 5.5 13.8586C5.5 13.8585 5.5 13.8583 5.5 13.8582C5.5 13.858 5.5 13.8579 5.5 13.8577C5.5 13.8576 5.5 13.8575 5.5 13.8573C5.5 13.8572 5.5 13.857 5.5 13.8569C5.5 13.8568 5.5 13.8566 5.5 13.8565C5.5 13.8563 5.5 13.8562 5.5 13.8561C5.5 13.8559 5.5 13.8558 5.5 13.8556C5.5 13.8555 5.5 13.8554 5.5 13.8552C5.5 13.8551 5.5 13.8549 5.5 13.8548C5.5 13.8547 5.5 13.8545 5.5 13.8544C5.5 13.8543 5.5 13.8541 5.5 13.854C5.5 13.8538 5.5 13.8537 5.5 13.8536C5.5 13.8534 5.5 13.8533 5.5 13.8532C5.5 13.853 5.5 13.8529 5.5 13.8528C5.5 13.8526 5.5 13.8525 5.5 13.8523C5.5 13.8522 5.5 13.8521 5.5 13.8519C5.5 13.8518 5.5 13.8517 5.5 13.8515C5.5 13.8514 5.5 13.8513 5.5 13.8511C5.5 13.851 5.5 13.8509 5.5 13.8507C5.5 13.8506 5.5 13.8505 5.5 13.8503C5.5 13.8502 5.5 13.8501 5.5 13.8499C5.5 13.8498 5.5 13.8497 5.5 13.8495C5.5 13.8494 5.5 13.8493 5.5 13.8491C5.5 13.849 5.5 13.8489 5.5 13.8487C5.5 13.8486 5.5 13.8485 5.5 13.8484C5.5 13.8482 5.5 13.8481 5.5 13.848C5.5 13.8478 5.5 13.8477 5.5 13.8476C5.5 13.8474 5.5 13.8473 5.5 13.8472C5.5 13.8471 5.5 13.8469 5.5 13.8468C5.5 13.8467 5.5 13.8465 5.5 13.8464C5.5 13.8463 5.5 13.8462 5.5 13.846C5.5 13.8459 5.5 13.8458 5.5 13.8456C5.5 13.8455 5.5 13.8454 5.5 13.8453C5.5 13.8451 5.5 13.845 5.5 13.8449C5.5 13.8448 5.5 13.8446 5.5 13.8445C5.5 13.8444 5.5 13.8442 5.5 13.8441C5.5 13.844 5.5 13.8439 5.5 13.8437C5.5 13.8436 5.5 13.8435 5.5 13.8434C5.5 13.8432 5.5 13.8431 5.5 13.843C5.5 13.8429 5.5 13.8427 5.5 13.8426C5.5 13.8425 5.5 13.8424 5.5 13.8422C5.5 13.8421 5.5 13.842 5.5 13.8419C5.5 13.8417 5.5 13.8416 5.5 13.8415C5.5 13.8414 5.5 13.8413 5.5 13.8411C5.5 13.841 5.5 13.8409 5.5 13.8408C5.5 13.8406 5.5 13.8405 5.5 13.8404C5.5 13.8403 5.5 13.8402 5.5 13.84C5.5 13.8399 5.5 13.8398 5.5 13.8397C5.5 13.8395 5.5 13.8394 5.5 13.8393C5.5 13.8392 5.5 13.8391 5.5 13.8389C5.5 13.8388 5.5 13.8387 5.5 13.8386C5.5 13.8385 5.5 13.8383 5.5 13.8382C5.5 13.8381 5.5 13.838 5.5 13.8379C5.5 13.8377 5.5 13.8376 5.5 13.8375C5.5 13.8374 5.5 13.8373 5.5 13.8371C5.5 13.837 5.5 13.8369 5.5 13.8368C5.5 13.8367 5.5 13.8366 5.5 13.8364C5.5 13.8363 5.5 13.8362 5.5 13.8361C5.5 13.836 5.5 13.8358 5.5 13.8357C5.5 13.8356 5.5 13.8355 5.5 13.8354C5.5 13.8353 5.5 13.8351 5.5 13.835C5.5 13.8349 5.5 13.8348 5.5 13.8347C5.5 13.8346 5.5 13.8344 5.5 13.8343C5.5 13.8342 5.5 13.8341 5.5 13.834C5.5 13.8339 5.5 13.8338 5.5 13.8336C5.5 13.8335 5.5 13.8334 5.5 13.8333C5.5 13.8332 5.5 13.8331 5.5 13.8329C5.5 13.8328 5.5 13.8327 5.5 13.8326C5.5 13.8325 5.5 13.8324 5.5 13.8323C5.5 13.8321 5.5 13.832 5.5 13.8319C5.5 13.8318 5.5 13.8317 5.5 13.8316C5.5 13.8315 5.5 13.8314 5.5 13.8312C5.5 13.8311 5.5 13.831 5.5 13.8309C5.5 13.8308 5.5 13.8307 5.5 13.8306C5.5 13.8304 5.5 13.8303 5.5 13.8302C5.5 13.8301 5.5 13.83 5.5 13.8299C5.5 13.8298 5.5 13.8297 5.5 13.8296C5.5 13.8294 5.5 13.8293 5.5 13.8292C5.5 13.8291 5.5 13.829 5.5 13.8289C5.5 13.8288 5.5 13.8287 5.5 13.8285C5.5 13.8284 5.5 13.8283 5.5 13.8282C5.5 13.8281 5.5 13.828 5.5 13.8279C5.5 13.8278 5.5 13.8277 5.5 13.8276C5.5 13.8274 5.5 13.8273 5.5 13.8272C5.5 13.8271 5.5 13.827 5.5 13.8269C5.5 13.8268 5.5 13.8267 5.5 13.8266C5.5 13.8265 5.5 13.8264 5.5 13.8262C5.5 13.8261 5.5 13.826 5.5 13.8259C5.5 13.8258 5.5 13.8257 5.5 13.8256C5.5 13.8255 5.5 13.8254 5.5 13.8253C5.5 13.8252 5.5 13.825 5.5 13.8249C5.5 13.8248 5.5 13.8247 5.5 13.8246C5.5 13.8245 5.5 13.8244 5.5 13.8243C5.5 13.8242 5.5 13.8241 5.5 13.824C5.5 13.8239 5.5 13.8238 5.5 13.8237C5.5 13.8235 5.5 13.8234 5.5 13.8233C5.5 13.8232 5.5 13.8231 5.5 13.823C5.5 13.8229 5.5 13.8228 5.5 13.8227C5.5 13.8226 5.5 13.8225 5.5 13.8224C5.5 13.8223 5.5 13.8222 5.5 13.8221C5.5 13.8219 5.5 13.8218 5.5 13.8217C5.5 13.8216 5.5 13.8215 5.5 13.8214C5.5 13.8213 5.5 13.8212 5.5 13.8211C5.5 13.821 5.5 13.8209 5.5 13.8208C5.5 13.8207 5.5 13.8206 5.5 13.8205C5.5 13.8204 5.5 13.8203 5.5 13.8202C5.5 13.8201 5.5 13.82 5.5 13.8198C5.5 13.8197 5.5 13.8196 5.5 13.8195C5.5 13.8194 5.5 13.8193 5.5 13.8192C5.5 13.8191 5.5 13.819 5.5 13.8189C5.5 13.8188 5.5 13.8187 5.5 13.8186C5.5 13.8185 5.5 13.8184 5.5 13.8183C5.5 13.8182 5.5 13.8181 5.5 13.818C5.5 13.8179 5.5 13.8178 5.5 13.8177C5.5 13.8176 5.5 13.8175 5.5 13.8174C5.5 13.8173 5.5 13.8172 5.5 13.8171C5.5 13.817 5.5 13.8169 5.5 13.8167C5.5 13.8166 5.5 13.8165 5.5 13.8164C5.5 13.8163 5.5 13.8162 5.5 13.8161C5.5 13.816 5.5 13.8159 5.5 13.8158C5.5 13.8157 5.5 13.8156 5.5 13.8155C5.5 13.8154 5.5 13.8153 5.5 13.8152C5.5 13.8151 5.5 13.815 5.5 13.8149C5.5 13.8148 5.5 13.8147 5.5 13.8146C5.5 13.8145 5.5 13.8144 5.5 13.8143C5.5 13.8142 5.5 13.8141 5.5 13.814C5.5 13.8139 5.5 13.8138 5.5 13.8137C5.5 13.8136 5.5 13.8135 5.5 13.8134C5.5 13.8133 5.5 13.8132 5.5 13.8131C5.5 13.813 5.5 13.8129 5.5 13.8128C5.5 13.8127 5.5 13.8126 5.5 13.8125C5.5 13.8124 5.5 13.8123 5.5 13.8122C5.5 13.8121 5.5 13.812 5.5 13.8119C5.5 13.8118 5.5 13.8117 5.5 13.8116C5.5 13.8115 5.5 13.8114 5.5 13.8113C5.5 13.8112 5.5 13.8111 5.5 13.811C5.5 13.8109 5.5 13.8108 5.5 13.8107C5.5 13.8106 5.5 13.8105 5.5 13.8104C5.5 13.8103 5.5 13.8102 5.5 13.8101C5.5 13.81 5.5 13.8099 5.5 13.8098C5.5 13.8097 5.5 13.8096 5.5 13.8095C5.5 13.8094 5.5 13.8093 5.5 13.8092C5.5 13.8091 5.5 13.809 5.5 13.8089C5.5 13.8088 5.5 13.8087 5.5 13.8086C5.5 13.8085 5.5 13.8084 5.5 13.8083C5.5 13.8082 5.5 13.8081 5.5 13.808C5.5 13.8079 5.5 13.8078 5.5 13.8077C5.5 13.8076 5.5 13.8075 5.5 13.8074C5.5 13.8073 5.5 13.8072 5.5 13.8071C5.5 13.807 5.5 13.8069 5.5 13.8068C5.5 13.8067 5.5 13.8066 5.5 13.8065C5.5 13.8064 5.5 13.8063 5.5 13.8062C5.5 13.8061 5.5 13.806 5.5 13.8059C5.5 13.8058 5.5 13.8057 5.5 13.8056C5.5 13.8055 5.5 13.8054 5.5 13.8053C5.5 13.8053 5.5 13.8052 5.5 13.8051C5.5 13.805 5.5 13.8049 5.5 13.8048C5.5 13.8047 5.5 13.8046 5.5 13.8045C5.5 13.8044 5.5 13.8043 5.5 13.8042C5.5 13.8041 5.5 13.804 5.5 13.8039C5.5 13.8038 5.5 13.8037 5.5 13.8036C5.5 13.8035 5.5 13.8034 5.5 13.8033C5.5 13.8032 5.5 13.8031 5.5 13.803C5.5 13.8029 5.5 13.8028 5.5 13.8027C5.5 13.8026 5.5 13.8025 5.5 13.8024C5.5 13.8023 5.5 13.8022 5.5 13.8021C5.5 13.802 5.5 13.8019 5.5 13.8018C5.5 13.8017 5.5 13.8016 5.5 13.8015C5.5 13.8014 5.5 13.8013 5.5 13.8012C5.5 13.8011 5.5 13.801 5.5 13.8009C5.5 13.8008 5.5 13.8007 5.5 13.8007C5.5 13.8006 5.5 13.8005 5.5 13.8004C5.5 13.8003 5.5 13.8002 5.5 13.8001C5.5 13.8 5.5 13.7999 5.5 13.7998C5.5 13.7997 5.5 13.7996 5.5 13.7995C5.5 13.7994 5.5 13.7993 5.5 13.7992C5.5 13.7991 5.5 13.799 5.5 13.7989C5.5 13.7988 5.5 13.7987 5.5 13.7986C5.5 13.7985 5.5 13.7984 5.5 13.7983C5.5 13.7982 5.5 13.7981 5.5 13.798C5.5 13.7979 5.5 13.7978 5.5 13.7977C5.5 13.7976 5.5 13.7975 5.5 13.7974C5.5 13.7973 5.5 13.7972 5.5 13.7971C5.5 13.797 5.5 13.7969 5.5 13.7968C5.5 13.7967 5.5 13.7966 5.5 13.7965C5.5 13.7965 5.5 13.7964 5.5 13.7963C5.5 13.7962 5.5 13.7961 5.5 13.796C5.5 13.7959 5.5 13.7958 5.5 13.7957C5.5 13.7956 5.5 13.7955 5.5 13.7954C5.5 13.7953 5.5 13.7952 5.5 13.7951C5.5 13.795 5.5 13.7949 5.5 13.7948C5.5 13.7947 5.5 13.7946 5.5 13.7945C5.5 13.7944 5.5 13.7943 5.5 13.7942C5.5 13.7941 5.5 13.794 5.5 13.7939C5.5 13.7938 5.5 13.7937 5.5 13.7936C5.5 13.7935 5.5 13.7934 5.5 13.7933C5.5 13.7932 5.5 13.7931 5.5 13.793C5.5 13.7929 5.5 13.7928 5.5 13.7927C5.5 13.7926 5.5 13.7925 5.5 13.7924C5.5 13.7923 5.5 13.7922 5.5 13.7921C5.5 13.792 5.5 13.7919 5.5 13.7918C5.5 13.7917 5.5 13.7916 5.5 13.7915C5.5 13.7914 5.5 13.7913 5.5 13.7912C5.5 13.7911 5.5 13.791 5.5 13.7909C5.5 13.7908 5.5 13.7907 5.5 13.7906C5.5 13.7905 5.5 13.7904 5.5 13.7903C5.5 13.7902 5.5 13.7902 5.5 13.7901C5.5 13.79 5.5 13.7899 5.5 13.7898C5.5 13.7897 5.5 13.7896 5.5 13.7895C5.5 13.7894 5.5 13.7893 5.5 13.7892C5.5 13.7891 5.5 13.789 5.5 13.7889C5.5 13.7888 5.5 13.7887 5.5 13.7886C5.5 13.7885 5.5 13.7884 5.5 13.7883C5.5 13.7882 5.5 13.7881 5.5 13.788C5.5 13.7879 5.5 13.7878 5.5 13.7877C5.5 13.7876 5.5 13.7875 5.5 13.7874C5.5 13.7873 5.5 13.7872 5.5 13.7871C5.5 13.787 5.5 13.7869 5.5 13.7868C5.5 13.7867 5.5 13.7866 5.5 13.7865C5.5 13.7864 5.5 13.7863 5.5 13.7862C5.5 13.7861 5.5 13.7859 5.5 13.7858C5.5 13.7857 5.5 13.7856 5.5 13.7855C5.5 13.7854 5.5 13.7853 5.5 13.7852C5.5 13.7851 5.5 13.785 5.5 13.7849C5.5 13.7848 5.5 13.7847 5.5 13.7846C5.5 13.7845 5.5 13.7844 5.5 13.7843C5.5 13.7842 5.5 13.7841 5.5 13.784C5.5 13.7839 5.5 13.7838 5.5 13.7837C5.5 13.7836 5.5 13.7835 5.5 13.7834C5.5 13.7833 5.5 13.7832 5.5 13.7831C5.5 13.783 5.5 13.7829 5.5 13.7828C5.5 13.7827 5.5 13.7826 5.5 13.7825C5.5 13.7824 5.5 13.7823 5.5 13.7822C5.5 13.7821 5.5 13.782 5.5 13.7819C5.5 13.7818 5.5 13.7817 5.5 13.7816C5.5 13.7815 5.5 13.7814 5.5 13.7813C5.5 13.7811 5.5 13.781 5.5 13.7809C5.5 13.7808 5.5 13.7807 5.5 13.7806C5.5 13.7805 5.5 13.7804 5.5 13.7803C5.5 13.7802 5.5 13.7801 5.5 13.78C5.5 13.7799 5.5 13.7798 5.5 13.7797C5.5 13.7796 5.5 13.7795 5.5 13.7794C5.5 13.7793 5.5 13.7792 5.5 13.7791C5.5 13.779 5.5 13.7789 5.5 13.7788C5.5 13.7786 5.5 13.7785 5.5 13.7784C5.5 13.7783 5.5 13.7782 5.5 13.7781C5.5 13.778 5.5 13.7779 5.5 13.7778C5.5 13.7777 5.5 13.7776 5.5 13.7775C5.5 13.7774 5.5 13.7773 5.5 13.7772C5.5 13.7771 5.5 13.777 5.5 13.7769C5.5 13.7767 5.5 13.7766 5.5 13.7765C5.5 13.7764 5.5 13.7763 5.5 13.7762C5.5 13.7761 5.5 13.776 5.5 13.7759C5.5 13.7758 5.5 13.7757 5.5 13.7756C5.5 13.7755 5.5 13.7754 5.5 13.7753C5.5 13.7751 5.5 13.775 5.5 13.7749C5.5 13.7748 5.5 13.7747 5.5 13.7746C5.5 13.7745 5.5 13.7744 5.5 13.7743C5.5 13.7742 5.5 13.7741 5.5 13.774C5.5 13.7738 5.5 13.7737 5.5 13.7736C5.5 13.7735 5.5 13.7734 5.5 13.7733C5.5 13.7732 5.5 13.7731 5.5 13.773C5.5 13.7729 5.5 13.7728 5.5 13.7726C5.5 13.7725 5.5 13.7724 5.5 13.7723C5.5 13.7722 5.5 13.7721 5.5 13.772C5.5 13.7719 5.5 13.7718 5.5 13.7717C5.5 13.7715 5.5 13.7714 5.5 13.7713C5.5 13.7712 5.5 13.7711 5.5 13.771C5.5 13.7709 5.5 13.7708 5.5 13.7707C5.5 13.7706 5.5 13.7704 5.5 13.7703C5.5 13.7702 5.5 13.7701 5.5 13.77C5.5 13.7699 5.5 13.7698 5.5 13.7697C5.5 13.7695 5.5 13.7694 5.5 13.7693C5.5 13.7692 5.5 13.7691 5.5 13.769C5.5 13.7689 5.5 13.7688 5.5 13.7686C5.5 13.7685 5.5 13.7684 5.5 13.7683C5.5 13.7682 5.5 13.7681 5.5 13.768C5.5 13.7679 5.5 13.7677 5.5 13.7676C5.5 13.7675 5.5 13.7674 5.5 13.7673C5.5 13.7672 5.5 13.7671 5.5 13.7669C5.5 13.7668 5.5 13.7667 5.5 13.7666C5.5 13.7665 5.5 13.7664 5.5 13.7663C5.5 13.7661 5.5 13.766 5.5 13.7659C5.5 13.7658 5.5 13.7657 5.5 13.7656C5.5 13.7654 5.5 13.7653 5.5 13.7652C5.5 13.7651 5.5 13.765 5.5 13.7649C5.5 13.7648 5.5 13.7646 5.5 13.7645C5.5 13.7644 5.5 13.7643 5.5 13.7642C5.5 13.764 5.5 13.7639 5.5 13.7638C5.5 13.7637 5.5 13.7636 5.5 13.7635C5.5 13.7633 5.5 13.7632 5.5 13.7631C5.5 13.763 5.5 13.7629 5.5 13.7628C5.5 13.7626 5.5 13.7625 5.5 13.7624C5.5 13.7623 5.5 13.7622 5.5 13.762C5.5 13.7619 5.5 13.7618 5.5 13.7617C5.5 13.7616 5.5 13.7614 5.5 13.7613C5.5 13.7612 5.5 13.7611 5.5 13.761C5.5 13.7608 5.5 13.7607 5.5 13.7606C5.5 13.7605 5.5 13.7604 5.5 13.7602C5.5 13.7601 5.5 13.76 5.5 13.7599C5.5 13.7598 5.5 13.7596 5.5 13.7595C5.5 13.7594 5.5 13.7593 5.5 13.7591C5.5 13.759 5.5 13.7589 5.5 13.7588C5.5 13.7587 5.5 13.7585 5.5 13.7584C5.5 13.7583 5.5 13.7582 5.5 13.758C5.5 13.7579 5.5 13.7578 5.5 13.7577C5.5 13.7576 5.5 13.7574 5.5 13.7573C5.5 13.7572 5.5 13.7571 5.5 13.7569C5.5 13.7568 5.5 13.7567 5.5 13.7566C5.5 13.7564 5.5 13.7563 5.5 13.7562C5.5 13.7561 5.5 13.7559 5.5 13.7558C5.5 13.7557 5.5 13.7556 5.5 13.7554C5.5 13.7553 5.5 13.7552 5.5 13.755C5.5 13.7549 5.5 13.7548 5.5 13.7547C5.5 13.7545 5.5 13.7544 5.5 13.7543C5.5 13.7542 5.5 13.754 5.5 13.7539C5.5 13.7538 5.5 13.7536 5.5 13.7535C5.5 13.7534 5.5 13.7533 5.5 13.7531C5.5 13.753 5.5 13.7529 5.5 13.7527C5.5 13.7526 5.5 13.7525 5.5 13.7524C5.5 13.7522 5.5 13.7521 5.5 13.752C5.5 13.7518 5.5 13.7517 5.5 13.7516C5.5 13.7515 5.5 13.7513 5.5 13.7512C5.5 13.7511 5.5 13.7509 5.5 13.7508C5.5 13.7507 5.5 13.7505 5.5 13.7504C5.5 13.7503 5.5 13.7501 5.5 13.75C5.5 13.7499 5.5 13.7497 5.5 13.7496C5.5 13.7495 5.5 13.7493 5.5 13.7492C5.5 13.7491 5.5 13.7489 5.5 13.7488C5.5 13.7487 5.5 13.7485 5.5 13.7484C5.5 13.7483 5.5 13.7481 5.5 13.748C5.5 13.7479 5.5 13.7477 5.5 13.7476C5.5 13.7475 5.5 13.7473 5.5 13.7472C5.5 13.7471 5.5 13.7469 5.5 13.7468C5.5 13.7467 5.5 13.7465 5.5 13.7464C5.5 13.7463 5.5 13.7461 5.5 13.746C5.5 13.7458 5.5 13.7457 5.5 13.7456C5.5 13.7454 5.5 13.7453 5.5 13.7452C5.5 13.745 5.5 13.7449 5.5 13.7447C5.5 13.7446 5.5 13.7445 5.5 13.7443C5.5 13.7442 5.5 13.744 5.5 13.7439C5.5 13.7438 5.5 13.7436 5.5 13.7435C5.5 13.7433 5.5 13.7432 5.5 13.7431C5.5 13.7429 5.5 13.7428 5.5 13.7426C5.5 13.7425 5.5 13.7424 5.5 13.7422C5.5 13.7421 5.5 13.7419 5.5 13.7418C5.5 13.7417 5.5 13.7415 5.5 13.7414C5.5 13.7412 5.5 13.7411 5.5 13.7409C5.5 13.7408 5.5 13.7407 5.5 13.7405C5.5 13.7404 5.5 13.7402 5.5 13.7401C5.5 13.7399 5.5 13.7398 5.5 13.7397C5.5 13.7395 5.5 13.7394 5.5 13.7392C5.5 13.7391 5.5 13.7389 5.5 13.7388C5.5 13.7386 5.5 13.7385 5.5 13.7383C5.5 13.7382 5.5 13.7381 5.5 13.7379C5.5 13.7378 5.5 13.7376 5.5 13.7375C5.5 13.7373 5.5 13.7372 5.5 13.737C5.5 13.7369 5.5 13.7367 5.5 13.7366C5.5 13.7364 5.5 13.7363 5.5 13.7361C5.5 13.736 5.5 13.7358 5.5 13.7357C5.5 13.7355 5.5 13.7354 5.5 13.7352C5.5 13.7351 5.5 13.7349 5.5 13.7348C5.5 13.7346 5.5 13.7345 5.5 13.7343C5.5 13.7342 5.5 13.734 5.5 13.7339C5.5 13.7337 5.5 13.7336 5.5 13.7334C5.5 13.7333 5.5 13.7331 5.5 13.733C5.5 13.7328 5.5 13.7327 5.5 13.7325C5.5 13.7324 5.5 13.7322 5.5 13.7321C5.5 13.7319 5.5 13.7317 5.5 13.7316C5.5 13.7314 5.5 13.7313 5.5 13.7311C5.5 13.731 5.5 13.7308 5.5 13.7307C5.5 13.7305 5.5 13.7304 5.5 13.7302C5.5 13.73 5.5 13.7299 5.5 13.7297C5.5 13.7296 5.5 13.7294 5.5 13.7293C5.5 13.7291 5.5 13.7289 5.5 13.7288C5.5 13.7286 5.5 13.7285 5.5 13.7283C5.5 13.7282 5.5 13.728 5.5 13.7278C5.5 13.7277 5.5 13.7275 5.5 13.7274C5.5 13.7272 5.5 13.727 5.5 13.7269C5.5 13.7267 5.5 13.7266 5.5 13.7264C5.5 13.7262 5.5 13.7261 5.5 13.7259C5.5 13.7257 5.5 13.7256 5.5 13.7254C5.5 13.7253 5.5 13.7251 5.5 13.7249C5.5 13.7248 5.5 13.7246 5.5 13.7244C5.5 13.7243 5.5 13.7241 5.5 13.724C5.5 13.7238 5.5 13.7236 5.5 13.7235C5.5 13.7233 5.5 13.7231 5.5 13.723C5.5 13.7228 5.5 13.7226 5.5 13.7225C5.5 13.7223 5.5 13.7221 5.5 13.722C5.5 13.7218 5.5 13.7216 5.5 13.7215C5.5 13.7213 5.5 13.7211 5.5 13.721C5.5 13.7208 5.5 13.7206 5.5 13.7205C5.5 13.7203 5.5 13.7201 5.5 13.72C5.5 13.7198 5.5 13.7196 5.5 13.7195C5.5 13.7193 5.5 13.7191 5.5 13.7189C5.5 13.7188 5.5 13.7186 5.5 13.7184C5.5 13.7183 5.5 13.7181 5.5 13.7179C5.5 13.7177 5.5 13.7176 5.5 13.7174C5.5 13.7172 5.5 13.7171 5.5 13.7169C5.5 13.7167 5.5 13.7165 5.5 13.7164C5.5 13.7162 5.5 13.716 5.5 13.7158C5.5 13.7157 5.5 13.7155 5.5 13.7153C5.5 13.7151 5.5 13.715 5.5 13.7148C5.5 13.7146 5.5 13.7144 5.5 13.7143C5.5 13.7141 5.5 13.7139 5.5 13.7137C5.5 13.7136 5.5 13.7134 5.5 13.7132C5.5 13.713 5.5 13.7128 5.5 13.7127C5.5 13.7125 5.5 13.7123 5.5 13.7121C5.5 13.7119 5.5 13.7118 5.5 13.7116C5.5 13.7114 5.5 13.7112 5.5 13.711C5.5 13.7109 5.5 13.7107 5.5 13.7105C5.5 13.7103 5.5 13.7101 5.5 13.71C5.5 13.7098 5.5 13.7096 5.5 13.7094C5.5 13.7092 5.5 13.709 5.5 13.7089C5.5 13.7087 5.5 13.7085 5.5 13.7083C5.5 13.7081 5.5 13.7079 5.5 13.7078C5.5 13.7076 5.5 13.7074 5.5 13.7072C5.5 13.707 5.5 13.7068 5.5 13.7066C5.5 13.7065 5.5 13.7063 5.5 13.7061C5.5 13.7059 5.5 13.7057 5.5 13.7055C5.5 13.7053 5.5 13.7051 5.5 13.705C5.5 13.7048 5.5 13.7046 5.5 13.7044C5.5 13.7042 5.5 13.704 5.5 13.7038C5.5 13.7036 5.5 13.7034 5.5 13.7032C5.5 13.7031 5.5 13.7029 5.5 13.7027C5.5 13.7025 5.5 13.7023 5.5 13.7021C5.5 13.7019 5.5 13.7017 5.5 13.7015C5.5 13.7013 5.5 13.7011 5.5 13.7009C5.5 13.7007 5.5 13.7006 5.5 13.7004C5.5 13.7002 5.5 13.7 5.5 13.6998H1.5ZM1.5 13.8998C1.5 14.5043 1.71023 15.1634 2.22329 15.6765C2.73634 16.1895 3.3955 16.3998 4 16.3998V12.3998C4.3045 12.3998 4.71365 12.51 5.05171 12.8481C5.38977 13.1861 5.5 13.5953 5.5 13.8998H1.5ZM4 16.3998H6V12.3998H4V16.3998ZM4 14.3998V16.9998H8V14.3998H4ZM4 16.9998C4 19.2043 5.79543 20.9998 8 20.9998V16.9998H4ZM8 20.9998H9V16.9998H8V20.9998ZM7 18.9998V21.4998H11V18.9998H7ZM7 21.4998C7 22.1043 7.21023 22.7634 7.72329 23.2765C8.23634 23.7895 8.8955 23.9998 9.5 23.9998V19.9998C9.8045 19.9998 10.2137 20.11 10.5517 20.4481C10.8898 20.7861 11 21.1953 11 21.4998H7ZM9.5 23.9998C10.1045 23.9998 10.7637 23.7895 11.2767 23.2765C11.7898 22.7634 12 22.1043 12 21.4998H8C8 21.1953 8.11023 20.7861 8.44829 20.4481C8.78635 20.11 9.1955 19.9998 9.5 19.9998V23.9998ZM12 21.4998V18.9998H8V21.4998H12ZM10 20.9998H10.5V16.9998H10V20.9998ZM10.5 20.9998C11.1045 20.9998 11.7637 20.7895 12.2767 20.2765C12.7898 19.7634 13 19.1043 13 18.4998H9C9 18.1953 9.11023 17.7861 9.44829 17.4481C9.78635 17.11 10.1955 16.9998 10.5 16.9998V20.9998ZM13 18.4998C13 17.8953 12.7898 17.2361 12.2767 16.7231C11.7637 16.21 11.1045 15.9998 10.5 15.9998V19.9998C10.1955 19.9998 9.78635 19.8895 9.44829 19.5515C9.11023 19.2134 9 18.8043 9 18.4998H13ZM10.5 15.9998H8V19.9998H10.5V15.9998ZM8 15.9998C8.1545 15.9998 8.43865 16.06 8.68921 16.3106C8.93977 16.5611 9 16.8453 9 16.9998H5C5 17.7543 5.26023 18.5384 5.86079 19.139C6.46134 19.7395 7.2455 19.9998 8 19.9998V15.9998ZM9 16.9998V13.9998H5V16.9998H9ZM9 13.9998C9 13.3953 8.78977 12.7361 8.27671 12.2231C7.76366 11.71 7.1045 11.4998 6.5 11.4998V15.4998C6.1955 15.4998 5.78635 15.3895 5.44829 15.0515C5.11023 14.7134 5 14.3043 5 13.9998H9ZM6.5 11.4998H4.8V15.4998H6.5V11.4998ZM6.59798 14.3757L8.49798 10.4757L4.90202 8.72383L3.00202 12.6238L6.59798 14.3757ZM8.7 9.59977C8.7 9.94408 8.60502 10.2306 8.50292 10.4348C8.46239 10.5159 8.42348 10.5772 8.42797 10.5699C8.42804 10.5698 8.42812 10.5696 8.42844 10.5691C8.4287 10.5687 8.42916 10.568 8.42966 10.5672C8.43066 10.5655 8.43236 10.5628 8.43437 10.5595C8.43828 10.5531 8.44503 10.5421 8.4531 10.5284C8.46856 10.5023 8.49599 10.4549 8.52636 10.3942C8.58702 10.2729 8.68064 10.0574 8.72266 9.77162C8.76722 9.46862 8.74237 9.16621 8.65784 8.88445C8.50915 8.38883 8.21263 8.08398 8.11421 7.98556L5.28579 10.814C5.24415 10.7723 5.16979 10.6935 5.09025 10.5799C5.01029 10.4657 4.90106 10.2822 4.82653 10.0338C4.74669 9.76771 4.72262 9.47936 4.76523 9.18965C4.8053 8.91717 4.89423 8.71419 4.94864 8.60535C4.99442 8.51379 5.0451 8.43501 5.02477 8.46793C5.02105 8.47394 4.97355 8.54929 4.92521 8.64597C4.80748 8.88143 4.7 9.20547 4.7 9.59977H8.7ZM8.7 9.39977C8.7 6.96313 10.6453 4.99977 13 4.99977V0.999773C8.35466 0.999773 4.7 4.83641 4.7 9.39977H8.7ZM13 4.99977C15.4249 4.99977 17.4319 6.94595 17.5008 9.35689L21.4992 9.24265C21.3681 4.65359 17.5751 0.999773 13 0.999773V4.99977ZM17.5671 8.78597L15.4671 16.686L19.3329 17.7136L21.4329 9.81358L17.5671 8.78597ZM15.4 17.1998C15.4 17.2 15.4 17.2002 15.4 17.2004C15.4 17.2006 15.4 17.2008 15.4 17.2009C15.4 17.2011 15.4 17.2013 15.4 17.2015C15.4 17.2017 15.4 17.2019 15.4 17.2021C15.4 17.2023 15.4 17.2025 15.4 17.2027C15.4 17.2029 15.4 17.2031 15.4 17.2033C15.4 17.2035 15.4 17.2037 15.4 17.2039C15.4 17.2041 15.4 17.2043 15.4 17.2045C15.4 17.2047 15.4 17.2049 15.4 17.205C15.4 17.2052 15.4 17.2054 15.4 17.2056C15.4 17.2058 15.4 17.206 15.4 17.2062C15.4 17.2064 15.4 17.2066 15.4 17.2068C15.4 17.207 15.4 17.2072 15.4 17.2074C15.4 17.2076 15.4 17.2078 15.4 17.208C15.4 17.2082 15.4 17.2084 15.4 17.2086C15.4 17.2088 15.4 17.209 15.4 17.2091C15.4 17.2093 15.4 17.2095 15.4 17.2097C15.4 17.2099 15.4 17.2101 15.4 17.2103C15.4 17.2105 15.4 17.2107 15.4 17.2109C15.4 17.2111 15.4 17.2113 15.4 17.2115C15.4 17.2117 15.4 17.2119 15.4 17.2121C15.4 17.2123 15.4 17.2125 15.4 17.2127C15.4 17.2129 15.4 17.2131 15.4 17.2133C15.4 17.2134 15.4 17.2136 15.4 17.2138C15.4 17.214 15.4 17.2142 15.4 17.2144C15.4 17.2146 15.4 17.2148 15.4 17.215C15.4 17.2152 15.4 17.2154 15.4 17.2156C15.4 17.2158 15.4 17.216 15.4 17.2162C15.4 17.2164 15.4 17.2166 15.4 17.2168C15.4 17.217 15.4 17.2172 15.4 17.2174C15.4 17.2175 15.4 17.2177 15.4 17.2179C15.4 17.2181 15.4 17.2183 15.4 17.2185C15.4 17.2187 15.4 17.2189 15.4 17.2191C15.4 17.2193 15.4 17.2195 15.4 17.2197C15.4 17.2199 15.4 17.2201 15.4 17.2203C15.4 17.2205 15.4 17.2207 15.4 17.2209C15.4 17.2211 15.4 17.2213 15.4 17.2215C15.4 17.2216 15.4 17.2218 15.4 17.222C15.4 17.2222 15.4 17.2224 15.4 17.2226C15.4 17.2228 15.4 17.223 15.4 17.2232C15.4 17.2234 15.4 17.2236 15.4 17.2238C15.4 17.224 15.4 17.2242 15.4 17.2244C15.4 17.2246 15.4 17.2248 15.4 17.225C15.4 17.2252 15.4 17.2254 15.4 17.2256C15.4 17.2257 15.4 17.2259 15.4 17.2261C15.4 17.2263 15.4 17.2265 15.4 17.2267C15.4 17.2269 15.4 17.2271 15.4 17.2273C15.4 17.2275 15.4 17.2277 15.4 17.2279C15.4 17.2281 15.4 17.2283 15.4 17.2285C15.4 17.2287 15.4 17.2289 15.4 17.2291C15.4 17.2293 15.4 17.2295 15.4 17.2297C15.4 17.2299 15.4 17.23 15.4 17.2302C15.4 17.2304 15.4 17.2306 15.4 17.2308C15.4 17.231 15.4 17.2312 15.4 17.2314C15.4 17.2316 15.4 17.2318 15.4 17.232C15.4 17.2322 15.4 17.2324 15.4 17.2326C15.4 17.2328 15.4 17.233 15.4 17.2332C15.4 17.2334 15.4 17.2336 15.4 17.2338C15.4 17.234 15.4 17.2341 15.4 17.2343C15.4 17.2345 15.4 17.2347 15.4 17.2349C15.4 17.2351 15.4 17.2353 15.4 17.2355C15.4 17.2357 15.4 17.2359 15.4 17.2361C15.4 17.2363 15.4 17.2365 15.4 17.2367C15.4 17.2369 15.4 17.2371 15.4 17.2373C15.4 17.2375 15.4 17.2377 15.4 17.2379C15.4 17.2381 15.4 17.2383 15.4 17.2384C15.4 17.2386 15.4 17.2388 15.4 17.239C15.4 17.2392 15.4 17.2394 15.4 17.2396C15.4 17.2398 15.4 17.24 15.4 17.2402C15.4 17.2404 15.4 17.2406 15.4 17.2408C15.4 17.241 15.4 17.2412 15.4 17.2414C15.4 17.2416 15.4 17.2418 15.4 17.242C15.4 17.2422 15.4 17.2424 15.4 17.2425C15.4 17.2427 15.4 17.2429 15.4 17.2431C15.4 17.2433 15.4 17.2435 15.4 17.2437C15.4 17.2439 15.4 17.2441 15.4 17.2443C15.4 17.2445 15.4 17.2447 15.4 17.2449C15.4 17.2451 15.4 17.2453 15.4 17.2455C15.4 17.2457 15.4 17.2459 15.4 17.2461C15.4 17.2463 15.4 17.2465 15.4 17.2466C15.4 17.2468 15.4 17.247 15.4 17.2472C15.4 17.2474 15.4 17.2476 15.4 17.2478C15.4 17.248 15.4 17.2482 15.4 17.2484C15.4 17.2486 15.4 17.2488 15.4 17.249C15.4 17.2492 15.4 17.2494 15.4 17.2496C15.4 17.2498 15.4 17.25 15.4 17.2502C15.4 17.2504 15.4 17.2506 15.4 17.2508C15.4 17.2509 15.4 17.2511 15.4 17.2513C15.4 17.2515 15.4 17.2517 15.4 17.2519C15.4 17.2521 15.4 17.2523 15.4 17.2525C15.4 17.2527 15.4 17.2529 15.4 17.2531C15.4 17.2533 15.4 17.2535 15.4 17.2537C15.4 17.2539 15.4 17.2541 15.4 17.2543C15.4 17.2545 15.4 17.2547 15.4 17.2549C15.4 17.255 15.4 17.2552 15.4 17.2554C15.4 17.2556 15.4 17.2558 15.4 17.256C15.4 17.2562 15.4 17.2564 15.4 17.2566C15.4 17.2568 15.4 17.257 15.4 17.2572C15.4 17.2574 15.4 17.2576 15.4 17.2578C15.4 17.258 15.4 17.2582 15.4 17.2584C15.4 17.2586 15.4 17.2588 15.4 17.259C15.4 17.2591 15.4 17.2593 15.4 17.2595C15.4 17.2597 15.4 17.2599 15.4 17.2601C15.4 17.2603 15.4 17.2605 15.4 17.2607C15.4 17.2609 15.4 17.2611 15.4 17.2613C15.4 17.2615 15.4 17.2617 15.4 17.2619C15.4 17.2621 15.4 17.2623 15.4 17.2625C15.4 17.2627 15.4 17.2629 15.4 17.2631C15.4 17.2633 15.4 17.2634 15.4 17.2636C15.4 17.2638 15.4 17.264 15.4 17.2642C15.4 17.2644 15.4 17.2646 15.4 17.2648C15.4 17.265 15.4 17.2652 15.4 17.2654C15.4 17.2656 15.4 17.2658 15.4 17.266C15.4 17.2662 15.4 17.2664 15.4 17.2666C15.4 17.2668 15.4 17.267 15.4 17.2672C15.4 17.2674 15.4 17.2675 15.4 17.2677C15.4 17.2679 15.4 17.2681 15.4 17.2683C15.4 17.2685 15.4 17.2687 15.4 17.2689C15.4 17.2691 15.4 17.2693 15.4 17.2695C15.4 17.2697 15.4 17.2699 15.4 17.2701C15.4 17.2703 15.4 17.2705 15.4 17.2707C15.4 17.2709 15.4 17.2711 15.4 17.2713C15.4 17.2715 15.4 17.2716 15.4 17.2718C15.4 17.272 15.4 17.2722 15.4 17.2724C15.4 17.2726 15.4 17.2728 15.4 17.273C15.4 17.2732 15.4 17.2734 15.4 17.2736C15.4 17.2738 15.4 17.274 15.4 17.2742C15.4 17.2744 15.4 17.2746 15.4 17.2748C15.4 17.275 15.4 17.2752 15.4 17.2754C15.4 17.2756 15.4 17.2758 15.4 17.2759C15.4 17.2761 15.4 17.2763 15.4 17.2765C15.4 17.2767 15.4 17.2769 15.4 17.2771C15.4 17.2773 15.4 17.2775 15.4 17.2777C15.4 17.2779 15.4 17.2781 15.4 17.2783C15.4 17.2785 15.4 17.2787 15.4 17.2789C15.4 17.2791 15.4 17.2793 15.4 17.2795C15.4 17.2797 15.4 17.2799 15.4 17.28C15.4 17.2802 15.4 17.2804 15.4 17.2806C15.4 17.2808 15.4 17.281 15.4 17.2812C15.4 17.2814 15.4 17.2816 15.4 17.2818C15.4 17.282 15.4 17.2822 15.4 17.2824C15.4 17.2826 15.4 17.2828 15.4 17.283C15.4 17.2832 15.4 17.2834 15.4 17.2836C15.4 17.2838 15.4 17.284 15.4 17.2841C15.4 17.2843 15.4 17.2845 15.4 17.2847C15.4 17.2849 15.4 17.2851 15.4 17.2853C15.4 17.2855 15.4 17.2857 15.4 17.2859C15.4 17.2861 15.4 17.2863 15.4 17.2865C15.4 17.2867 15.4 17.2869 15.4 17.2871C15.4 17.2873 15.4 17.2875 15.4 17.2877C15.4 17.2879 15.4 17.2881 15.4 17.2882C15.4 17.2884 15.4 17.2886 15.4 17.2888C15.4 17.289 15.4 17.2892 15.4 17.2894C15.4 17.2896 15.4 17.2898 15.4 17.29C15.4 17.2902 15.4 17.2904 15.4 17.2906C15.4 17.2908 15.4 17.291 15.4 17.2912C15.4 17.2914 15.4 17.2916 15.4 17.2918C15.4 17.292 15.4 17.2922 15.4 17.2924C15.4 17.2925 15.4 17.2927 15.4 17.2929C15.4 17.2931 15.4 17.2933 15.4 17.2935C15.4 17.2937 15.4 17.2939 15.4 17.2941C15.4 17.2943 15.4 17.2945 15.4 17.2947C15.4 17.2949 15.4 17.2951 15.4 17.2953C15.4 17.2955 15.4 17.2957 15.4 17.2959C15.4 17.2961 15.4 17.2963 15.4 17.2965C15.4 17.2966 15.4 17.2968 15.4 17.297C15.4 17.2972 15.4 17.2974 15.4 17.2976C15.4 17.2978 15.4 17.298 15.4 17.2982C15.4 17.2984 15.4 17.2986 15.4 17.2988C15.4 17.299 15.4 17.2992 15.4 17.2994C15.4 17.2996 15.4 17.2998 15.4 17.3C15.4 17.3002 15.4 17.3004 15.4 17.3006C15.4 17.3007 15.4 17.3009 15.4 17.3011C15.4 17.3013 15.4 17.3015 15.4 17.3017C15.4 17.3019 15.4 17.3021 15.4 17.3023C15.4 17.3025 15.4 17.3027 15.4 17.3029C15.4 17.3031 15.4 17.3033 15.4 17.3035C15.4 17.3037 15.4 17.3039 15.4 17.3041C15.4 17.3043 15.4 17.3045 15.4 17.3047C15.4 17.3049 15.4 17.305 15.4 17.3052C15.4 17.3054 15.4 17.3056 15.4 17.3058C15.4 17.306 15.4 17.3062 15.4 17.3064C15.4 17.3066 15.4 17.3068 15.4 17.307C15.4 17.3072 15.4 17.3074 15.4 17.3076C15.4 17.3078 15.4 17.308 15.4 17.3082C15.4 17.3084 15.4 17.3086 15.4 17.3088C15.4 17.309 15.4 17.3091 15.4 17.3093C15.4 17.3095 15.4 17.3097 15.4 17.3099C15.4 17.3101 15.4 17.3103 15.4 17.3105C15.4 17.3107 15.4 17.3109 15.4 17.3111C15.4 17.3113 15.4 17.3115 15.4 17.3117C15.4 17.3119 15.4 17.3121 15.4 17.3123C15.4 17.3125 15.4 17.3127 15.4 17.3129C15.4 17.3131 15.4 17.3133 15.4 17.3134C15.4 17.3136 15.4 17.3138 15.4 17.314C15.4 17.3142 15.4 17.3144 15.4 17.3146C15.4 17.3148 15.4 17.315 15.4 17.3152C15.4 17.3154 15.4 17.3156 15.4 17.3158C15.4 17.316 15.4 17.3162 15.4 17.3164C15.4 17.3166 15.4 17.3168 15.4 17.317C15.4 17.3172 15.4 17.3174 15.4 17.3175C15.4 17.3177 15.4 17.3179 15.4 17.3181C15.4 17.3183 15.4 17.3185 15.4 17.3187C15.4 17.3189 15.4 17.3191 15.4 17.3193C15.4 17.3195 15.4 17.3197 15.4 17.3199C15.4 17.3201 15.4 17.3203 15.4 17.3205C15.4 17.3207 15.4 17.3209 15.4 17.3211C15.4 17.3213 15.4 17.3215 15.4 17.3216C15.4 17.3218 15.4 17.322 15.4 17.3222C15.4 17.3224 15.4 17.3226 15.4 17.3228C15.4 17.323 15.4 17.3232 15.4 17.3234C15.4 17.3236 15.4 17.3238 15.4 17.324C15.4 17.3242 15.4 17.3244 15.4 17.3246C15.4 17.3248 15.4 17.325 15.4 17.3252C15.4 17.3254 15.4 17.3256 15.4 17.3258C15.4 17.3259 15.4 17.3261 15.4 17.3263C15.4 17.3265 15.4 17.3267 15.4 17.3269C15.4 17.3271 15.4 17.3273 15.4 17.3275C15.4 17.3277 15.4 17.3279 15.4 17.3281C15.4 17.3283 15.4 17.3285 15.4 17.3287C15.4 17.3289 15.4 17.3291 15.4 17.3293C15.4 17.3295 15.4 17.3297 15.4 17.3299C15.4 17.33 15.4 17.3302 15.4 17.3304C15.4 17.3306 15.4 17.3308 15.4 17.331C15.4 17.3312 15.4 17.3314 15.4 17.3316C15.4 17.3318 15.4 17.332 15.4 17.3322C15.4 17.3324 15.4 17.3326 15.4 17.3328C15.4 17.333 15.4 17.3332 15.4 17.3334C15.4 17.3336 15.4 17.3338 15.4 17.334C15.4 17.3341 15.4 17.3343 15.4 17.3345C15.4 17.3347 15.4 17.3349 15.4 17.3351C15.4 17.3353 15.4 17.3355 15.4 17.3357C15.4 17.3359 15.4 17.3361 15.4 17.3363C15.4 17.3365 15.4 17.3367 15.4 17.3369C15.4 17.3371 15.4 17.3373 15.4 17.3375C15.4 17.3377 15.4 17.3379 15.4 17.3381C15.4 17.3383 15.4 17.3384 15.4 17.3386C15.4 17.3388 15.4 17.339 15.4 17.3392C15.4 17.3394 15.4 17.3396 15.4 17.3398C15.4 17.34 15.4 17.3402 15.4 17.3404C15.4 17.3406 15.4 17.3408 15.4 17.341C15.4 17.3412 15.4 17.3414 15.4 17.3416C15.4 17.3418 15.4 17.342 15.4 17.3422C15.4 17.3424 15.4 17.3425 15.4 17.3427C15.4 17.3429 15.4 17.3431 15.4 17.3433C15.4 17.3435 15.4 17.3437 15.4 17.3439C15.4 17.3441 15.4 17.3443 15.4 17.3445C15.4 17.3447 15.4 17.3449 15.4 17.3451C15.4 17.3453 15.4 17.3455 15.4 17.3457C15.4 17.3459 15.4 17.3461 15.4 17.3463C15.4 17.3465 15.4 17.3466 15.4 17.3468C15.4 17.347 15.4 17.3472 15.4 17.3474C15.4 17.3476 15.4 17.3478 15.4 17.348C15.4 17.3482 15.4 17.3484 15.4 17.3486C15.4 17.3488 15.4 17.349 15.4 17.3492C15.4 17.3494 15.4 17.3496 15.4 17.3498C15.4 17.35 15.4 17.3502 15.4 17.3504C15.4 17.3506 15.4 17.3507 15.4 17.3509C15.4 17.3511 15.4 17.3513 15.4 17.3515C15.4 17.3517 15.4 17.3519 15.4 17.3521C15.4 17.3523 15.4 17.3525 15.4 17.3527C15.4 17.3529 15.4 17.3531 15.4 17.3533C15.4 17.3535 15.4 17.3537 15.4 17.3539C15.4 17.3541 15.4 17.3543 15.4 17.3545C15.4 17.3547 15.4 17.3549 15.4 17.355C15.4 17.3552 15.4 17.3554 15.4 17.3556C15.4 17.3558 15.4 17.356 15.4 17.3562C15.4 17.3564 15.4 17.3566 15.4 17.3568C15.4 17.357 15.4 17.3572 15.4 17.3574C15.4 17.3576 15.4 17.3578 15.4 17.358C15.4 17.3582 15.4 17.3584 15.4 17.3586C15.4 17.3588 15.4 17.359 15.4 17.3591C15.4 17.3593 15.4 17.3595 15.4 17.3597C15.4 17.3599 15.4 17.3601 15.4 17.3603C15.4 17.3605 15.4 17.3607 15.4 17.3609C15.4 17.3611 15.4 17.3613 15.4 17.3615C15.4 17.3617 15.4 17.3619 15.4 17.3621C15.4 17.3623 15.4 17.3625 15.4 17.3627C15.4 17.3629 15.4 17.3631 15.4 17.3632C15.4 17.3634 15.4 17.3636 15.4 17.3638C15.4 17.364 15.4 17.3642 15.4 17.3644C15.4 17.3646 15.4 17.3648 15.4 17.365C15.4 17.3652 15.4 17.3654 15.4 17.3656C15.4 17.3658 15.4 17.366 15.4 17.3662C15.4 17.3664 15.4 17.3666 15.4 17.3668C15.4 17.367 15.4 17.3672 15.4 17.3674C15.4 17.3675 15.4 17.3677 15.4 17.3679C15.4 17.3681 15.4 17.3683 15.4 17.3685C15.4 17.3687 15.4 17.3689 15.4 17.3691C15.4 17.3693 15.4 17.3695 15.4 17.3697C15.4 17.3699 15.4 17.3701 15.4 17.3703C15.4 17.3705 15.4 17.3707 15.4 17.3709C15.4 17.3711 15.4 17.3713 15.4 17.3715C15.4 17.3716 15.4 17.3718 15.4 17.372C15.4 17.3722 15.4 17.3724 15.4 17.3726C15.4 17.3728 15.4 17.373 15.4 17.3732C15.4 17.3734 15.4 17.3736 15.4 17.3738C15.4 17.374 15.4 17.3742 15.4 17.3744C15.4 17.3746 15.4 17.3748 15.4 17.375C15.4 17.3752 15.4 17.3754 15.4 17.3756C15.4 17.3757 15.4 17.3759 15.4 17.3761C15.4 17.3763 15.4 17.3765 15.4 17.3767C15.4 17.3769 15.4 17.3771 15.4 17.3773C15.4 17.3775 15.4 17.3777 15.4 17.3779C15.4 17.3781 15.4 17.3783 15.4 17.3785C15.4 17.3787 15.4 17.3789 15.4 17.3791C15.4 17.3793 15.4 17.3795 15.4 17.3797C15.4 17.3799 15.4 17.38 15.4 17.3802C15.4 17.3804 15.4 17.3806 15.4 17.3808C15.4 17.381 15.4 17.3812 15.4 17.3814C15.4 17.3816 15.4 17.3818 15.4 17.382C15.4 17.3822 15.4 17.3824 15.4 17.3826C15.4 17.3828 15.4 17.383 15.4 17.3832C15.4 17.3834 15.4 17.3836 15.4 17.3838C15.4 17.384 15.4 17.3841 15.4 17.3843C15.4 17.3845 15.4 17.3847 15.4 17.3849C15.4 17.3851 15.4 17.3853 15.4 17.3855C15.4 17.3857 15.4 17.3859 15.4 17.3861C15.4 17.3863 15.4 17.3865 15.4 17.3867C15.4 17.3869 15.4 17.3871 15.4 17.3873C15.4 17.3875 15.4 17.3877 15.4 17.3879C15.4 17.3881 15.4 17.3882 15.4 17.3884C15.4 17.3886 15.4 17.3888 15.4 17.389C15.4 17.3892 15.4 17.3894 15.4 17.3896C15.4 17.3898 15.4 17.39 15.4 17.3902C15.4 17.3904 15.4 17.3906 15.4 17.3908C15.4 17.391 15.4 17.3912 15.4 17.3914C15.4 17.3916 15.4 17.3918 15.4 17.392C15.4 17.3922 15.4 17.3924 15.4 17.3925C15.4 17.3927 15.4 17.3929 15.4 17.3931C15.4 17.3933 15.4 17.3935 15.4 17.3937C15.4 17.3939 15.4 17.3941 15.4 17.3943C15.4 17.3945 15.4 17.3947 15.4 17.3949C15.4 17.3951 15.4 17.3953 15.4 17.3955C15.4 17.3957 15.4 17.3959 15.4 17.3961C15.4 17.3963 15.4 17.3965 15.4 17.3966C15.4 17.3968 15.4 17.397 15.4 17.3972C15.4 17.3974 15.4 17.3976 15.4 17.3978C15.4 17.398 15.4 17.3982 15.4 17.3984C15.4 17.3986 15.4 17.3988 15.4 17.399C15.4 17.3992 15.4 17.3994 15.4 17.3996C15.4 17.3998 15.4 17.4 15.4 17.4002C15.4 17.4004 15.4 17.4006 15.4 17.4008C15.4 17.4009 15.4 17.4011 15.4 17.4013C15.4 17.4015 15.4 17.4017 15.4 17.4019C15.4 17.4021 15.4 17.4023 15.4 17.4025C15.4 17.4027 15.4 17.4029 15.4 17.4031C15.4 17.4033 15.4 17.4035 15.4 17.4037C15.4 17.4039 15.4 17.4041 15.4 17.4043C15.4 17.4045 15.4 17.4047 15.4 17.4049C15.4 17.405 15.4 17.4052 15.4 17.4054C15.4 17.4056 15.4 17.4058 15.4 17.406C15.4 17.4062 15.4 17.4064 15.4 17.4066C15.4 17.4068 15.4 17.407 15.4 17.4072C15.4 17.4074 15.4 17.4076 15.4 17.4078C15.4 17.408 15.4 17.4082 15.4 17.4084C15.4 17.4086 15.4 17.4088 15.4 17.409C15.4 17.4091 15.4 17.4093 15.4 17.4095C15.4 17.4097 15.4 17.4099 15.4 17.4101C15.4 17.4103 15.4 17.4105 15.4 17.4107C15.4 17.4109 15.4 17.4111 15.4 17.4113C15.4 17.4115 15.4 17.4117 15.4 17.4119C15.4 17.4121 15.4 17.4123 15.4 17.4125C15.4 17.4127 15.4 17.4129 15.4 17.4131C15.4 17.4132 15.4 17.4134 15.4 17.4136C15.4 17.4138 15.4 17.414 15.4 17.4142C15.4 17.4144 15.4 17.4146 15.4 17.4148C15.4 17.415 15.4 17.4152 15.4 17.4154C15.4 17.4156 15.4 17.4158 15.4 17.416C15.4 17.4162 15.4 17.4164 15.4 17.4166C15.4 17.4168 15.4 17.417 15.4 17.4172C15.4 17.4174 15.4 17.4175 15.4 17.4177C15.4 17.4179 15.4 17.4181 15.4 17.4183C15.4 17.4185 15.4 17.4187 15.4 17.4189C15.4 17.4191 15.4 17.4193 15.4 17.4195C15.4 17.4197 15.4 17.4199 15.4 17.4201C15.4 17.4203 15.4 17.4205 15.4 17.4207C15.4 17.4209 15.4 17.4211 15.4 17.4213C15.4 17.4215 15.4 17.4216 15.4 17.4218C15.4 17.422 15.4 17.4222 15.4 17.4224C15.4 17.4226 15.4 17.4228 15.4 17.423C15.4 17.4232 15.4 17.4234 15.4 17.4236C15.4 17.4238 15.4 17.424 15.4 17.4242C15.4 17.4244 15.4 17.4246 15.4 17.4248C15.4 17.425 15.4 17.4252 15.4 17.4254C15.4 17.4256 15.4 17.4257 15.4 17.4259C15.4 17.4261 15.4 17.4263 15.4 17.4265C15.4 17.4267 15.4 17.4269 15.4 17.4271C15.4 17.4273 15.4 17.4275 15.4 17.4277C15.4 17.4279 15.4 17.4281 15.4 17.4283C15.4 17.4285 15.4 17.4287 15.4 17.4289C15.4 17.4291 15.4 17.4293 15.4 17.4295C15.4 17.4297 15.4 17.4299 15.4 17.43C15.4 17.4302 15.4 17.4304 15.4 17.4306C15.4 17.4308 15.4 17.431 15.4 17.4312C15.4 17.4314 15.4 17.4316 15.4 17.4318C15.4 17.432 15.4 17.4322 15.4 17.4324C15.4 17.4326 15.4 17.4328 15.4 17.433C15.4 17.4332 15.4 17.4334 15.4 17.4336C15.4 17.4338 15.4 17.434 15.4 17.4341C15.4 17.4343 15.4 17.4345 15.4 17.4347C15.4 17.4349 15.4 17.4351 15.4 17.4353C15.4 17.4355 15.4 17.4357 15.4 17.4359C15.4 17.4361 15.4 17.4363 15.4 17.4365C15.4 17.4367 15.4 17.4369 15.4 17.4371C15.4 17.4373 15.4 17.4375 15.4 17.4377C15.4 17.4379 15.4 17.4381 15.4 17.4382C15.4 17.4384 15.4 17.4386 15.4 17.4388C15.4 17.439 15.4 17.4392 15.4 17.4394C15.4 17.4396 15.4 17.4398 15.4 17.44C15.4 17.4402 15.4 17.4404 15.4 17.4406C15.4 17.4408 15.4 17.441 15.4 17.4412C15.4 17.4414 15.4 17.4416 15.4 17.4418C15.4 17.442 15.4 17.4422 15.4 17.4424C15.4 17.4425 15.4 17.4427 15.4 17.4429C15.4 17.4431 15.4 17.4433 15.4 17.4435C15.4 17.4437 15.4 17.4439 15.4 17.4441C15.4 17.4443 15.4 17.4445 15.4 17.4447C15.4 17.4449 15.4 17.4451 15.4 17.4453C15.4 17.4455 15.4 17.4457 15.4 17.4459C15.4 17.4461 15.4 17.4463 15.4 17.4465C15.4 17.4466 15.4 17.4468 15.4 17.447C15.4 17.4472 15.4 17.4474 15.4 17.4476C15.4 17.4478 15.4 17.448 15.4 17.4482C15.4 17.4484 15.4 17.4486 15.4 17.4488C15.4 17.449 15.4 17.4492 15.4 17.4494C15.4 17.4496 15.4 17.4498 15.4 17.45C15.4 17.4502 15.4 17.4504 15.4 17.4506C15.4 17.4507 15.4 17.4509 15.4 17.4511C15.4 17.4513 15.4 17.4515 15.4 17.4517C15.4 17.4519 15.4 17.4521 15.4 17.4523C15.4 17.4525 15.4 17.4527 15.4 17.4529C15.4 17.4531 15.4 17.4533 15.4 17.4535C15.4 17.4537 15.4 17.4539 15.4 17.4541C15.4 17.4543 15.4 17.4545 15.4 17.4547C15.4 17.4549 15.4 17.455 15.4 17.4552C15.4 17.4554 15.4 17.4556 15.4 17.4558C15.4 17.456 15.4 17.4562 15.4 17.4564C15.4 17.4566 15.4 17.4568 15.4 17.457C15.4 17.4572 15.4 17.4574 15.4 17.4576C15.4 17.4578 15.4 17.458 15.4 17.4582C15.4 17.4584 15.4 17.4586 15.4 17.4588C15.4 17.459 15.4 17.4591 15.4 17.4593C15.4 17.4595 15.4 17.4597 15.4 17.4599C15.4 17.4601 15.4 17.4603 15.4 17.4605C15.4 17.4607 15.4 17.4609 15.4 17.4611C15.4 17.4613 15.4 17.4615 15.4 17.4617C15.4 17.4619 15.4 17.4621 15.4 17.4623C15.4 17.4625 15.4 17.4627 15.4 17.4629C15.4 17.4631 15.4 17.4632 15.4 17.4634C15.4 17.4636 15.4 17.4638 15.4 17.464C15.4 17.4642 15.4 17.4644 15.4 17.4646C15.4 17.4648 15.4 17.465 15.4 17.4652C15.4 17.4654 15.4 17.4656 15.4 17.4658C15.4 17.466 15.4 17.4662 15.4 17.4664C15.4 17.4666 15.4 17.4668 15.4 17.467C15.4 17.4672 15.4 17.4674 15.4 17.4675C15.4 17.4677 15.4 17.4679 15.4 17.4681C15.4 17.4683 15.4 17.4685 15.4 17.4687C15.4 17.4689 15.4 17.4691 15.4 17.4693C15.4 17.4695 15.4 17.4697 15.4 17.4699C15.4 17.4701 15.4 17.4703 15.4 17.4705C15.4 17.4707 15.4 17.4709 15.4 17.4711C15.4 17.4713 15.4 17.4715 15.4 17.4716C15.4 17.4718 15.4 17.472 15.4 17.4722C15.4 17.4724 15.4 17.4726 15.4 17.4728C15.4 17.473 15.4 17.4732 15.4 17.4734C15.4 17.4736 15.4 17.4738 15.4 17.474C15.4 17.4742 15.4 17.4744 15.4 17.4746C15.4 17.4748 15.4 17.475 15.4 17.4752C15.4 17.4754 15.4 17.4756 15.4 17.4757C15.4 17.4759 15.4 17.4761 15.4 17.4763C15.4 17.4765 15.4 17.4767 15.4 17.4769C15.4 17.4771 15.4 17.4773 15.4 17.4775C15.4 17.4777 15.4 17.4779 15.4 17.4781C15.4 17.4783 15.4 17.4785 15.4 17.4787C15.4 17.4789 15.4 17.4791 15.4 17.4793C15.4 17.4795 15.4 17.4797 15.4 17.4799C15.4 17.48 15.4 17.4802 15.4 17.4804C15.4 17.4806 15.4 17.4808 15.4 17.481C15.4 17.4812 15.4 17.4814 15.4 17.4816C15.4 17.4818 15.4 17.482 15.4 17.4822C15.4 17.4824 15.4 17.4826 15.4 17.4828C15.4 17.483 15.4 17.4832 15.4 17.4834C15.4 17.4836 15.4 17.4838 15.4 17.484C15.4 17.4841 15.4 17.4843 15.4 17.4845C15.4 17.4847 15.4 17.4849 15.4 17.4851C15.4 17.4853 15.4 17.4855 15.4 17.4857C15.4 17.4859 15.4 17.4861 15.4 17.4863C15.4 17.4865 15.4 17.4867 15.4 17.4869C15.4 17.4871 15.4 17.4873 15.4 17.4875C15.4 17.4877 15.4 17.4879 15.4 17.4881C15.4 17.4882 15.4 17.4884 15.4 17.4886C15.4 17.4888 15.4 17.489 15.4 17.4892C15.4 17.4894 15.4 17.4896 15.4 17.4898C15.4 17.49 15.4 17.4902 15.4 17.4904C15.4 17.4906 15.4 17.4908 15.4 17.491C15.4 17.4912 15.4 17.4914 15.4 17.4916C15.4 17.4918 15.4 17.492 15.4 17.4922C15.4 17.4924 15.4 17.4925 15.4 17.4927C15.4 17.4929 15.4 17.4931 15.4 17.4933C15.4 17.4935 15.4 17.4937 15.4 17.4939C15.4 17.4941 15.4 17.4943 15.4 17.4945C15.4 17.4947 15.4 17.4949 15.4 17.4951C15.4 17.4953 15.4 17.4955 15.4 17.4957C15.4 17.4959 15.4 17.4961 15.4 17.4963C15.4 17.4965 15.4 17.4966 15.4 17.4968C15.4 17.497 15.4 17.4972 15.4 17.4974C15.4 17.4976 15.4 17.4978 15.4 17.498C15.4 17.4982 15.4 17.4984 15.4 17.4986C15.4 17.4988 15.4 17.499 15.4 17.4992C15.4 17.4994 15.4 17.4996 15.4 17.4998H19.4C19.4 17.4996 19.4 17.4994 19.4 17.4992C19.4 17.499 19.4 17.4988 19.4 17.4986C19.4 17.4984 19.4 17.4982 19.4 17.498C19.4 17.4978 19.4 17.4976 19.4 17.4974C19.4 17.4972 19.4 17.497 19.4 17.4968C19.4 17.4966 19.4 17.4965 19.4 17.4963C19.4 17.4961 19.4 17.4959 19.4 17.4957C19.4 17.4955 19.4 17.4953 19.4 17.4951C19.4 17.4949 19.4 17.4947 19.4 17.4945C19.4 17.4943 19.4 17.4941 19.4 17.4939C19.4 17.4937 19.4 17.4935 19.4 17.4933C19.4 17.4931 19.4 17.4929 19.4 17.4927C19.4 17.4925 19.4 17.4924 19.4 17.4922C19.4 17.492 19.4 17.4918 19.4 17.4916C19.4 17.4914 19.4 17.4912 19.4 17.491C19.4 17.4908 19.4 17.4906 19.4 17.4904C19.4 17.4902 19.4 17.49 19.4 17.4898C19.4 17.4896 19.4 17.4894 19.4 17.4892C19.4 17.489 19.4 17.4888 19.4 17.4886C19.4 17.4884 19.4 17.4882 19.4 17.4881C19.4 17.4879 19.4 17.4877 19.4 17.4875C19.4 17.4873 19.4 17.4871 19.4 17.4869C19.4 17.4867 19.4 17.4865 19.4 17.4863C19.4 17.4861 19.4 17.4859 19.4 17.4857C19.4 17.4855 19.4 17.4853 19.4 17.4851C19.4 17.4849 19.4 17.4847 19.4 17.4845C19.4 17.4843 19.4 17.4841 19.4 17.484C19.4 17.4838 19.4 17.4836 19.4 17.4834C19.4 17.4832 19.4 17.483 19.4 17.4828C19.4 17.4826 19.4 17.4824 19.4 17.4822C19.4 17.482 19.4 17.4818 19.4 17.4816C19.4 17.4814 19.4 17.4812 19.4 17.481C19.4 17.4808 19.4 17.4806 19.4 17.4804C19.4 17.4802 19.4 17.48 19.4 17.4799C19.4 17.4797 19.4 17.4795 19.4 17.4793C19.4 17.4791 19.4 17.4789 19.4 17.4787C19.4 17.4785 19.4 17.4783 19.4 17.4781C19.4 17.4779 19.4 17.4777 19.4 17.4775C19.4 17.4773 19.4 17.4771 19.4 17.4769C19.4 17.4767 19.4 17.4765 19.4 17.4763C19.4 17.4761 19.4 17.4759 19.4 17.4757C19.4 17.4756 19.4 17.4754 19.4 17.4752C19.4 17.475 19.4 17.4748 19.4 17.4746C19.4 17.4744 19.4 17.4742 19.4 17.474C19.4 17.4738 19.4 17.4736 19.4 17.4734C19.4 17.4732 19.4 17.473 19.4 17.4728C19.4 17.4726 19.4 17.4724 19.4 17.4722C19.4 17.472 19.4 17.4718 19.4 17.4716C19.4 17.4715 19.4 17.4713 19.4 17.4711C19.4 17.4709 19.4 17.4707 19.4 17.4705C19.4 17.4703 19.4 17.4701 19.4 17.4699C19.4 17.4697 19.4 17.4695 19.4 17.4693C19.4 17.4691 19.4 17.4689 19.4 17.4687C19.4 17.4685 19.4 17.4683 19.4 17.4681C19.4 17.4679 19.4 17.4677 19.4 17.4675C19.4 17.4674 19.4 17.4672 19.4 17.467C19.4 17.4668 19.4 17.4666 19.4 17.4664C19.4 17.4662 19.4 17.466 19.4 17.4658C19.4 17.4656 19.4 17.4654 19.4 17.4652C19.4 17.465 19.4 17.4648 19.4 17.4646C19.4 17.4644 19.4 17.4642 19.4 17.464C19.4 17.4638 19.4 17.4636 19.4 17.4634C19.4 17.4632 19.4 17.4631 19.4 17.4629C19.4 17.4627 19.4 17.4625 19.4 17.4623C19.4 17.4621 19.4 17.4619 19.4 17.4617C19.4 17.4615 19.4 17.4613 19.4 17.4611C19.4 17.4609 19.4 17.4607 19.4 17.4605C19.4 17.4603 19.4 17.4601 19.4 17.4599C19.4 17.4597 19.4 17.4595 19.4 17.4593C19.4 17.4591 19.4 17.459 19.4 17.4588C19.4 17.4586 19.4 17.4584 19.4 17.4582C19.4 17.458 19.4 17.4578 19.4 17.4576C19.4 17.4574 19.4 17.4572 19.4 17.457C19.4 17.4568 19.4 17.4566 19.4 17.4564C19.4 17.4562 19.4 17.456 19.4 17.4558C19.4 17.4556 19.4 17.4554 19.4 17.4552C19.4 17.455 19.4 17.4549 19.4 17.4547C19.4 17.4545 19.4 17.4543 19.4 17.4541C19.4 17.4539 19.4 17.4537 19.4 17.4535C19.4 17.4533 19.4 17.4531 19.4 17.4529C19.4 17.4527 19.4 17.4525 19.4 17.4523C19.4 17.4521 19.4 17.4519 19.4 17.4517C19.4 17.4515 19.4 17.4513 19.4 17.4511C19.4 17.4509 19.4 17.4507 19.4 17.4506C19.4 17.4504 19.4 17.4502 19.4 17.45C19.4 17.4498 19.4 17.4496 19.4 17.4494C19.4 17.4492 19.4 17.449 19.4 17.4488C19.4 17.4486 19.4 17.4484 19.4 17.4482C19.4 17.448 19.4 17.4478 19.4 17.4476C19.4 17.4474 19.4 17.4472 19.4 17.447C19.4 17.4468 19.4 17.4466 19.4 17.4465C19.4 17.4463 19.4 17.4461 19.4 17.4459C19.4 17.4457 19.4 17.4455 19.4 17.4453C19.4 17.4451 19.4 17.4449 19.4 17.4447C19.4 17.4445 19.4 17.4443 19.4 17.4441C19.4 17.4439 19.4 17.4437 19.4 17.4435C19.4 17.4433 19.4 17.4431 19.4 17.4429C19.4 17.4427 19.4 17.4425 19.4 17.4424C19.4 17.4422 19.4 17.442 19.4 17.4418C19.4 17.4416 19.4 17.4414 19.4 17.4412C19.4 17.441 19.4 17.4408 19.4 17.4406C19.4 17.4404 19.4 17.4402 19.4 17.44C19.4 17.4398 19.4 17.4396 19.4 17.4394C19.4 17.4392 19.4 17.439 19.4 17.4388C19.4 17.4386 19.4 17.4384 19.4 17.4382C19.4 17.4381 19.4 17.4379 19.4 17.4377C19.4 17.4375 19.4 17.4373 19.4 17.4371C19.4 17.4369 19.4 17.4367 19.4 17.4365C19.4 17.4363 19.4 17.4361 19.4 17.4359C19.4 17.4357 19.4 17.4355 19.4 17.4353C19.4 17.4351 19.4 17.4349 19.4 17.4347C19.4 17.4345 19.4 17.4343 19.4 17.4341C19.4 17.434 19.4 17.4338 19.4 17.4336C19.4 17.4334 19.4 17.4332 19.4 17.433C19.4 17.4328 19.4 17.4326 19.4 17.4324C19.4 17.4322 19.4 17.432 19.4 17.4318C19.4 17.4316 19.4 17.4314 19.4 17.4312C19.4 17.431 19.4 17.4308 19.4 17.4306C19.4 17.4304 19.4 17.4302 19.4 17.43C19.4 17.4299 19.4 17.4297 19.4 17.4295C19.4 17.4293 19.4 17.4291 19.4 17.4289C19.4 17.4287 19.4 17.4285 19.4 17.4283C19.4 17.4281 19.4 17.4279 19.4 17.4277C19.4 17.4275 19.4 17.4273 19.4 17.4271C19.4 17.4269 19.4 17.4267 19.4 17.4265C19.4 17.4263 19.4 17.4261 19.4 17.4259C19.4 17.4257 19.4 17.4256 19.4 17.4254C19.4 17.4252 19.4 17.425 19.4 17.4248C19.4 17.4246 19.4 17.4244 19.4 17.4242C19.4 17.424 19.4 17.4238 19.4 17.4236C19.4 17.4234 19.4 17.4232 19.4 17.423C19.4 17.4228 19.4 17.4226 19.4 17.4224C19.4 17.4222 19.4 17.422 19.4 17.4218C19.4 17.4216 19.4 17.4215 19.4 17.4213C19.4 17.4211 19.4 17.4209 19.4 17.4207C19.4 17.4205 19.4 17.4203 19.4 17.4201C19.4 17.4199 19.4 17.4197 19.4 17.4195C19.4 17.4193 19.4 17.4191 19.4 17.4189C19.4 17.4187 19.4 17.4185 19.4 17.4183C19.4 17.4181 19.4 17.4179 19.4 17.4177C19.4 17.4175 19.4 17.4174 19.4 17.4172C19.4 17.417 19.4 17.4168 19.4 17.4166C19.4 17.4164 19.4 17.4162 19.4 17.416C19.4 17.4158 19.4 17.4156 19.4 17.4154C19.4 17.4152 19.4 17.415 19.4 17.4148C19.4 17.4146 19.4 17.4144 19.4 17.4142C19.4 17.414 19.4 17.4138 19.4 17.4136C19.4 17.4134 19.4 17.4132 19.4 17.4131C19.4 17.4129 19.4 17.4127 19.4 17.4125C19.4 17.4123 19.4 17.4121 19.4 17.4119C19.4 17.4117 19.4 17.4115 19.4 17.4113C19.4 17.4111 19.4 17.4109 19.4 17.4107C19.4 17.4105 19.4 17.4103 19.4 17.4101C19.4 17.4099 19.4 17.4097 19.4 17.4095C19.4 17.4093 19.4 17.4091 19.4 17.409C19.4 17.4088 19.4 17.4086 19.4 17.4084C19.4 17.4082 19.4 17.408 19.4 17.4078C19.4 17.4076 19.4 17.4074 19.4 17.4072C19.4 17.407 19.4 17.4068 19.4 17.4066C19.4 17.4064 19.4 17.4062 19.4 17.406C19.4 17.4058 19.4 17.4056 19.4 17.4054C19.4 17.4052 19.4 17.405 19.4 17.4049C19.4 17.4047 19.4 17.4045 19.4 17.4043C19.4 17.4041 19.4 17.4039 19.4 17.4037C19.4 17.4035 19.4 17.4033 19.4 17.4031C19.4 17.4029 19.4 17.4027 19.4 17.4025C19.4 17.4023 19.4 17.4021 19.4 17.4019C19.4 17.4017 19.4 17.4015 19.4 17.4013C19.4 17.4011 19.4 17.4009 19.4 17.4008C19.4 17.4006 19.4 17.4004 19.4 17.4002C19.4 17.4 19.4 17.3998 19.4 17.3996C19.4 17.3994 19.4 17.3992 19.4 17.399C19.4 17.3988 19.4 17.3986 19.4 17.3984C19.4 17.3982 19.4 17.398 19.4 17.3978C19.4 17.3976 19.4 17.3974 19.4 17.3972C19.4 17.397 19.4 17.3968 19.4 17.3966C19.4 17.3965 19.4 17.3963 19.4 17.3961C19.4 17.3959 19.4 17.3957 19.4 17.3955C19.4 17.3953 19.4 17.3951 19.4 17.3949C19.4 17.3947 19.4 17.3945 19.4 17.3943C19.4 17.3941 19.4 17.3939 19.4 17.3937C19.4 17.3935 19.4 17.3933 19.4 17.3931C19.4 17.3929 19.4 17.3927 19.4 17.3925C19.4 17.3924 19.4 17.3922 19.4 17.392C19.4 17.3918 19.4 17.3916 19.4 17.3914C19.4 17.3912 19.4 17.391 19.4 17.3908C19.4 17.3906 19.4 17.3904 19.4 17.3902C19.4 17.39 19.4 17.3898 19.4 17.3896C19.4 17.3894 19.4 17.3892 19.4 17.389C19.4 17.3888 19.4 17.3886 19.4 17.3884C19.4 17.3882 19.4 17.3881 19.4 17.3879C19.4 17.3877 19.4 17.3875 19.4 17.3873C19.4 17.3871 19.4 17.3869 19.4 17.3867C19.4 17.3865 19.4 17.3863 19.4 17.3861C19.4 17.3859 19.4 17.3857 19.4 17.3855C19.4 17.3853 19.4 17.3851 19.4 17.3849C19.4 17.3847 19.4 17.3845 19.4 17.3843C19.4 17.3841 19.4 17.384 19.4 17.3838C19.4 17.3836 19.4 17.3834 19.4 17.3832C19.4 17.383 19.4 17.3828 19.4 17.3826C19.4 17.3824 19.4 17.3822 19.4 17.382C19.4 17.3818 19.4 17.3816 19.4 17.3814C19.4 17.3812 19.4 17.381 19.4 17.3808C19.4 17.3806 19.4 17.3804 19.4 17.3802C19.4 17.38 19.4 17.3799 19.4 17.3797C19.4 17.3795 19.4 17.3793 19.4 17.3791C19.4 17.3789 19.4 17.3787 19.4 17.3785C19.4 17.3783 19.4 17.3781 19.4 17.3779C19.4 17.3777 19.4 17.3775 19.4 17.3773C19.4 17.3771 19.4 17.3769 19.4 17.3767C19.4 17.3765 19.4 17.3763 19.4 17.3761C19.4 17.3759 19.4 17.3757 19.4 17.3756C19.4 17.3754 19.4 17.3752 19.4 17.375C19.4 17.3748 19.4 17.3746 19.4 17.3744C19.4 17.3742 19.4 17.374 19.4 17.3738C19.4 17.3736 19.4 17.3734 19.4 17.3732C19.4 17.373 19.4 17.3728 19.4 17.3726C19.4 17.3724 19.4 17.3722 19.4 17.372C19.4 17.3718 19.4 17.3716 19.4 17.3715C19.4 17.3713 19.4 17.3711 19.4 17.3709C19.4 17.3707 19.4 17.3705 19.4 17.3703C19.4 17.3701 19.4 17.3699 19.4 17.3697C19.4 17.3695 19.4 17.3693 19.4 17.3691C19.4 17.3689 19.4 17.3687 19.4 17.3685C19.4 17.3683 19.4 17.3681 19.4 17.3679C19.4 17.3677 19.4 17.3675 19.4 17.3674C19.4 17.3672 19.4 17.367 19.4 17.3668C19.4 17.3666 19.4 17.3664 19.4 17.3662C19.4 17.366 19.4 17.3658 19.4 17.3656C19.4 17.3654 19.4 17.3652 19.4 17.365C19.4 17.3648 19.4 17.3646 19.4 17.3644C19.4 17.3642 19.4 17.364 19.4 17.3638C19.4 17.3636 19.4 17.3634 19.4 17.3632C19.4 17.3631 19.4 17.3629 19.4 17.3627C19.4 17.3625 19.4 17.3623 19.4 17.3621C19.4 17.3619 19.4 17.3617 19.4 17.3615C19.4 17.3613 19.4 17.3611 19.4 17.3609C19.4 17.3607 19.4 17.3605 19.4 17.3603C19.4 17.3601 19.4 17.3599 19.4 17.3597C19.4 17.3595 19.4 17.3593 19.4 17.3591C19.4 17.359 19.4 17.3588 19.4 17.3586C19.4 17.3584 19.4 17.3582 19.4 17.358C19.4 17.3578 19.4 17.3576 19.4 17.3574C19.4 17.3572 19.4 17.357 19.4 17.3568C19.4 17.3566 19.4 17.3564 19.4 17.3562C19.4 17.356 19.4 17.3558 19.4 17.3556C19.4 17.3554 19.4 17.3552 19.4 17.355C19.4 17.3549 19.4 17.3547 19.4 17.3545C19.4 17.3543 19.4 17.3541 19.4 17.3539C19.4 17.3537 19.4 17.3535 19.4 17.3533C19.4 17.3531 19.4 17.3529 19.4 17.3527C19.4 17.3525 19.4 17.3523 19.4 17.3521C19.4 17.3519 19.4 17.3517 19.4 17.3515C19.4 17.3513 19.4 17.3511 19.4 17.3509C19.4 17.3507 19.4 17.3506 19.4 17.3504C19.4 17.3502 19.4 17.35 19.4 17.3498C19.4 17.3496 19.4 17.3494 19.4 17.3492C19.4 17.349 19.4 17.3488 19.4 17.3486C19.4 17.3484 19.4 17.3482 19.4 17.348C19.4 17.3478 19.4 17.3476 19.4 17.3474C19.4 17.3472 19.4 17.347 19.4 17.3468C19.4 17.3466 19.4 17.3465 19.4 17.3463C19.4 17.3461 19.4 17.3459 19.4 17.3457C19.4 17.3455 19.4 17.3453 19.4 17.3451C19.4 17.3449 19.4 17.3447 19.4 17.3445C19.4 17.3443 19.4 17.3441 19.4 17.3439C19.4 17.3437 19.4 17.3435 19.4 17.3433C19.4 17.3431 19.4 17.3429 19.4 17.3427C19.4 17.3425 19.4 17.3424 19.4 17.3422C19.4 17.342 19.4 17.3418 19.4 17.3416C19.4 17.3414 19.4 17.3412 19.4 17.341C19.4 17.3408 19.4 17.3406 19.4 17.3404C19.4 17.3402 19.4 17.34 19.4 17.3398C19.4 17.3396 19.4 17.3394 19.4 17.3392C19.4 17.339 19.4 17.3388 19.4 17.3386C19.4 17.3384 19.4 17.3383 19.4 17.3381C19.4 17.3379 19.4 17.3377 19.4 17.3375C19.4 17.3373 19.4 17.3371 19.4 17.3369C19.4 17.3367 19.4 17.3365 19.4 17.3363C19.4 17.3361 19.4 17.3359 19.4 17.3357C19.4 17.3355 19.4 17.3353 19.4 17.3351C19.4 17.3349 19.4 17.3347 19.4 17.3345C19.4 17.3343 19.4 17.3341 19.4 17.334C19.4 17.3338 19.4 17.3336 19.4 17.3334C19.4 17.3332 19.4 17.333 19.4 17.3328C19.4 17.3326 19.4 17.3324 19.4 17.3322C19.4 17.332 19.4 17.3318 19.4 17.3316C19.4 17.3314 19.4 17.3312 19.4 17.331C19.4 17.3308 19.4 17.3306 19.4 17.3304C19.4 17.3302 19.4 17.33 19.4 17.3299C19.4 17.3297 19.4 17.3295 19.4 17.3293C19.4 17.3291 19.4 17.3289 19.4 17.3287C19.4 17.3285 19.4 17.3283 19.4 17.3281C19.4 17.3279 19.4 17.3277 19.4 17.3275C19.4 17.3273 19.4 17.3271 19.4 17.3269C19.4 17.3267 19.4 17.3265 19.4 17.3263C19.4 17.3261 19.4 17.3259 19.4 17.3258C19.4 17.3256 19.4 17.3254 19.4 17.3252C19.4 17.325 19.4 17.3248 19.4 17.3246C19.4 17.3244 19.4 17.3242 19.4 17.324C19.4 17.3238 19.4 17.3236 19.4 17.3234C19.4 17.3232 19.4 17.323 19.4 17.3228C19.4 17.3226 19.4 17.3224 19.4 17.3222C19.4 17.322 19.4 17.3218 19.4 17.3216C19.4 17.3215 19.4 17.3213 19.4 17.3211C19.4 17.3209 19.4 17.3207 19.4 17.3205C19.4 17.3203 19.4 17.3201 19.4 17.3199C19.4 17.3197 19.4 17.3195 19.4 17.3193C19.4 17.3191 19.4 17.3189 19.4 17.3187C19.4 17.3185 19.4 17.3183 19.4 17.3181C19.4 17.3179 19.4 17.3177 19.4 17.3175C19.4 17.3174 19.4 17.3172 19.4 17.317C19.4 17.3168 19.4 17.3166 19.4 17.3164C19.4 17.3162 19.4 17.316 19.4 17.3158C19.4 17.3156 19.4 17.3154 19.4 17.3152C19.4 17.315 19.4 17.3148 19.4 17.3146C19.4 17.3144 19.4 17.3142 19.4 17.314C19.4 17.3138 19.4 17.3136 19.4 17.3134C19.4 17.3133 19.4 17.3131 19.4 17.3129C19.4 17.3127 19.4 17.3125 19.4 17.3123C19.4 17.3121 19.4 17.3119 19.4 17.3117C19.4 17.3115 19.4 17.3113 19.4 17.3111C19.4 17.3109 19.4 17.3107 19.4 17.3105C19.4 17.3103 19.4 17.3101 19.4 17.3099C19.4 17.3097 19.4 17.3095 19.4 17.3093C19.4 17.3091 19.4 17.309 19.4 17.3088C19.4 17.3086 19.4 17.3084 19.4 17.3082C19.4 17.308 19.4 17.3078 19.4 17.3076C19.4 17.3074 19.4 17.3072 19.4 17.307C19.4 17.3068 19.4 17.3066 19.4 17.3064C19.4 17.3062 19.4 17.306 19.4 17.3058C19.4 17.3056 19.4 17.3054 19.4 17.3052C19.4 17.305 19.4 17.3049 19.4 17.3047C19.4 17.3045 19.4 17.3043 19.4 17.3041C19.4 17.3039 19.4 17.3037 19.4 17.3035C19.4 17.3033 19.4 17.3031 19.4 17.3029C19.4 17.3027 19.4 17.3025 19.4 17.3023C19.4 17.3021 19.4 17.3019 19.4 17.3017C19.4 17.3015 19.4 17.3013 19.4 17.3011C19.4 17.3009 19.4 17.3007 19.4 17.3006C19.4 17.3004 19.4 17.3002 19.4 17.3C19.4 17.2998 19.4 17.2996 19.4 17.2994C19.4 17.2992 19.4 17.299 19.4 17.2988C19.4 17.2986 19.4 17.2984 19.4 17.2982C19.4 17.298 19.4 17.2978 19.4 17.2976C19.4 17.2974 19.4 17.2972 19.4 17.297C19.4 17.2968 19.4 17.2966 19.4 17.2965C19.4 17.2963 19.4 17.2961 19.4 17.2959C19.4 17.2957 19.4 17.2955 19.4 17.2953C19.4 17.2951 19.4 17.2949 19.4 17.2947C19.4 17.2945 19.4 17.2943 19.4 17.2941C19.4 17.2939 19.4 17.2937 19.4 17.2935C19.4 17.2933 19.4 17.2931 19.4 17.2929C19.4 17.2927 19.4 17.2925 19.4 17.2924C19.4 17.2922 19.4 17.292 19.4 17.2918C19.4 17.2916 19.4 17.2914 19.4 17.2912C19.4 17.291 19.4 17.2908 19.4 17.2906C19.4 17.2904 19.4 17.2902 19.4 17.29C19.4 17.2898 19.4 17.2896 19.4 17.2894C19.4 17.2892 19.4 17.289 19.4 17.2888C19.4 17.2886 19.4 17.2884 19.4 17.2882C19.4 17.2881 19.4 17.2879 19.4 17.2877C19.4 17.2875 19.4 17.2873 19.4 17.2871C19.4 17.2869 19.4 17.2867 19.4 17.2865C19.4 17.2863 19.4 17.2861 19.4 17.2859C19.4 17.2857 19.4 17.2855 19.4 17.2853C19.4 17.2851 19.4 17.2849 19.4 17.2847C19.4 17.2845 19.4 17.2843 19.4 17.2841C19.4 17.284 19.4 17.2838 19.4 17.2836C19.4 17.2834 19.4 17.2832 19.4 17.283C19.4 17.2828 19.4 17.2826 19.4 17.2824C19.4 17.2822 19.4 17.282 19.4 17.2818C19.4 17.2816 19.4 17.2814 19.4 17.2812C19.4 17.281 19.4 17.2808 19.4 17.2806C19.4 17.2804 19.4 17.2802 19.4 17.28C19.4 17.2799 19.4 17.2797 19.4 17.2795C19.4 17.2793 19.4 17.2791 19.4 17.2789C19.4 17.2787 19.4 17.2785 19.4 17.2783C19.4 17.2781 19.4 17.2779 19.4 17.2777C19.4 17.2775 19.4 17.2773 19.4 17.2771C19.4 17.2769 19.4 17.2767 19.4 17.2765C19.4 17.2763 19.4 17.2761 19.4 17.2759C19.4 17.2758 19.4 17.2756 19.4 17.2754C19.4 17.2752 19.4 17.275 19.4 17.2748C19.4 17.2746 19.4 17.2744 19.4 17.2742C19.4 17.274 19.4 17.2738 19.4 17.2736C19.4 17.2734 19.4 17.2732 19.4 17.273C19.4 17.2728 19.4 17.2726 19.4 17.2724C19.4 17.2722 19.4 17.272 19.4 17.2718C19.4 17.2716 19.4 17.2715 19.4 17.2713C19.4 17.2711 19.4 17.2709 19.4 17.2707C19.4 17.2705 19.4 17.2703 19.4 17.2701C19.4 17.2699 19.4 17.2697 19.4 17.2695C19.4 17.2693 19.4 17.2691 19.4 17.2689C19.4 17.2687 19.4 17.2685 19.4 17.2683C19.4 17.2681 19.4 17.2679 19.4 17.2677C19.4 17.2675 19.4 17.2674 19.4 17.2672C19.4 17.267 19.4 17.2668 19.4 17.2666C19.4 17.2664 19.4 17.2662 19.4 17.266C19.4 17.2658 19.4 17.2656 19.4 17.2654C19.4 17.2652 19.4 17.265 19.4 17.2648C19.4 17.2646 19.4 17.2644 19.4 17.2642C19.4 17.264 19.4 17.2638 19.4 17.2636C19.4 17.2634 19.4 17.2633 19.4 17.2631C19.4 17.2629 19.4 17.2627 19.4 17.2625C19.4 17.2623 19.4 17.2621 19.4 17.2619C19.4 17.2617 19.4 17.2615 19.4 17.2613C19.4 17.2611 19.4 17.2609 19.4 17.2607C19.4 17.2605 19.4 17.2603 19.4 17.2601C19.4 17.2599 19.4 17.2597 19.4 17.2595C19.4 17.2593 19.4 17.2591 19.4 17.259C19.4 17.2588 19.4 17.2586 19.4 17.2584C19.4 17.2582 19.4 17.258 19.4 17.2578C19.4 17.2576 19.4 17.2574 19.4 17.2572C19.4 17.257 19.4 17.2568 19.4 17.2566C19.4 17.2564 19.4 17.2562 19.4 17.256C19.4 17.2558 19.4 17.2556 19.4 17.2554C19.4 17.2552 19.4 17.255 19.4 17.2549C19.4 17.2547 19.4 17.2545 19.4 17.2543C19.4 17.2541 19.4 17.2539 19.4 17.2537C19.4 17.2535 19.4 17.2533 19.4 17.2531C19.4 17.2529 19.4 17.2527 19.4 17.2525C19.4 17.2523 19.4 17.2521 19.4 17.2519C19.4 17.2517 19.4 17.2515 19.4 17.2513C19.4 17.2511 19.4 17.2509 19.4 17.2508C19.4 17.2506 19.4 17.2504 19.4 17.2502C19.4 17.25 19.4 17.2498 19.4 17.2496C19.4 17.2494 19.4 17.2492 19.4 17.249C19.4 17.2488 19.4 17.2486 19.4 17.2484C19.4 17.2482 19.4 17.248 19.4 17.2478C19.4 17.2476 19.4 17.2474 19.4 17.2472C19.4 17.247 19.4 17.2468 19.4 17.2466C19.4 17.2465 19.4 17.2463 19.4 17.2461C19.4 17.2459 19.4 17.2457 19.4 17.2455C19.4 17.2453 19.4 17.2451 19.4 17.2449C19.4 17.2447 19.4 17.2445 19.4 17.2443C19.4 17.2441 19.4 17.2439 19.4 17.2437C19.4 17.2435 19.4 17.2433 19.4 17.2431C19.4 17.2429 19.4 17.2427 19.4 17.2425C19.4 17.2424 19.4 17.2422 19.4 17.242C19.4 17.2418 19.4 17.2416 19.4 17.2414C19.4 17.2412 19.4 17.241 19.4 17.2408C19.4 17.2406 19.4 17.2404 19.4 17.2402C19.4 17.24 19.4 17.2398 19.4 17.2396C19.4 17.2394 19.4 17.2392 19.4 17.239C19.4 17.2388 19.4 17.2386 19.4 17.2384C19.4 17.2383 19.4 17.2381 19.4 17.2379C19.4 17.2377 19.4 17.2375 19.4 17.2373C19.4 17.2371 19.4 17.2369 19.4 17.2367C19.4 17.2365 19.4 17.2363 19.4 17.2361C19.4 17.2359 19.4 17.2357 19.4 17.2355C19.4 17.2353 19.4 17.2351 19.4 17.2349C19.4 17.2347 19.4 17.2345 19.4 17.2343C19.4 17.2341 19.4 17.234 19.4 17.2338C19.4 17.2336 19.4 17.2334 19.4 17.2332C19.4 17.233 19.4 17.2328 19.4 17.2326C19.4 17.2324 19.4 17.2322 19.4 17.232C19.4 17.2318 19.4 17.2316 19.4 17.2314C19.4 17.2312 19.4 17.231 19.4 17.2308C19.4 17.2306 19.4 17.2304 19.4 17.2302C19.4 17.23 19.4 17.2299 19.4 17.2297C19.4 17.2295 19.4 17.2293 19.4 17.2291C19.4 17.2289 19.4 17.2287 19.4 17.2285C19.4 17.2283 19.4 17.2281 19.4 17.2279C19.4 17.2277 19.4 17.2275 19.4 17.2273C19.4 17.2271 19.4 17.2269 19.4 17.2267C19.4 17.2265 19.4 17.2263 19.4 17.2261C19.4 17.2259 19.4 17.2257 19.4 17.2256C19.4 17.2254 19.4 17.2252 19.4 17.225C19.4 17.2248 19.4 17.2246 19.4 17.2244C19.4 17.2242 19.4 17.224 19.4 17.2238C19.4 17.2236 19.4 17.2234 19.4 17.2232C19.4 17.223 19.4 17.2228 19.4 17.2226C19.4 17.2224 19.4 17.2222 19.4 17.222C19.4 17.2218 19.4 17.2216 19.4 17.2215C19.4 17.2213 19.4 17.2211 19.4 17.2209C19.4 17.2207 19.4 17.2205 19.4 17.2203C19.4 17.2201 19.4 17.2199 19.4 17.2197C19.4 17.2195 19.4 17.2193 19.4 17.2191C19.4 17.2189 19.4 17.2187 19.4 17.2185C19.4 17.2183 19.4 17.2181 19.4 17.2179C19.4 17.2177 19.4 17.2175 19.4 17.2174C19.4 17.2172 19.4 17.217 19.4 17.2168C19.4 17.2166 19.4 17.2164 19.4 17.2162C19.4 17.216 19.4 17.2158 19.4 17.2156C19.4 17.2154 19.4 17.2152 19.4 17.215C19.4 17.2148 19.4 17.2146 19.4 17.2144C19.4 17.2142 19.4 17.214 19.4 17.2138C19.4 17.2136 19.4 17.2134 19.4 17.2133C19.4 17.2131 19.4 17.2129 19.4 17.2127C19.4 17.2125 19.4 17.2123 19.4 17.2121C19.4 17.2119 19.4 17.2117 19.4 17.2115C19.4 17.2113 19.4 17.2111 19.4 17.2109C19.4 17.2107 19.4 17.2105 19.4 17.2103C19.4 17.2101 19.4 17.2099 19.4 17.2097C19.4 17.2095 19.4 17.2093 19.4 17.2091C19.4 17.209 19.4 17.2088 19.4 17.2086C19.4 17.2084 19.4 17.2082 19.4 17.208C19.4 17.2078 19.4 17.2076 19.4 17.2074C19.4 17.2072 19.4 17.207 19.4 17.2068C19.4 17.2066 19.4 17.2064 19.4 17.2062C19.4 17.206 19.4 17.2058 19.4 17.2056C19.4 17.2054 19.4 17.2052 19.4 17.205C19.4 17.2049 19.4 17.2047 19.4 17.2045C19.4 17.2043 19.4 17.2041 19.4 17.2039C19.4 17.2037 19.4 17.2035 19.4 17.2033C19.4 17.2031 19.4 17.2029 19.4 17.2027C19.4 17.2025 19.4 17.2023 19.4 17.2021C19.4 17.2019 19.4 17.2017 19.4 17.2015C19.4 17.2013 19.4 17.2011 19.4 17.2009C19.4 17.2008 19.4 17.2006 19.4 17.2004C19.4 17.2002 19.4 17.2 19.4 17.1998H15.4ZM15.4653 18.0065L16.5653 22.2065L20.4347 21.1931L19.3347 16.9931L15.4653 18.0065ZM16.7111 22.5942C16.8694 22.9107 17.1032 23.2295 17.4109 23.4933C17.6959 23.7376 18.2428 24.0998 19 24.0998V20.0998C19.5572 20.0998 19.9041 20.362 20.0141 20.4563C20.1468 20.57 20.2306 20.6889 20.2889 20.8053L16.7111 22.5942ZM19 24.0998H19.1V20.0998H19V24.0998ZM19.7325 23.9971C20.2155 23.8361 20.7453 23.5159 21.1085 22.9348C21.4463 22.3944 21.5 21.8476 21.5 21.4998H17.5C17.5 21.452 17.5037 21.1552 17.7165 20.8148C17.9547 20.4337 18.2845 20.2634 18.4675 20.2024L19.7325 23.9971ZM21.443 21.0259L20.443 16.9259L16.557 17.8737L17.557 21.9737L21.443 21.0259ZM20.4312 17.9197L22.5312 10.1197L18.6688 9.07983L16.5688 16.8798L20.4312 17.9197ZM22.0142 8.18556C22.2085 8.37989 22.3359 8.60791 22.4099 8.82982C22.4457 8.9373 22.468 9.03996 22.4815 9.13411C22.4882 9.18136 22.4928 9.22715 22.4958 9.27122C22.4972 9.29329 22.4983 9.31503 22.499 9.33643C22.4993 9.34713 22.4996 9.35776 22.4998 9.36831C22.4998 9.37359 22.4999 9.37885 22.4999 9.38409C22.5 9.38671 22.5 9.38933 22.5 9.39194C22.5 9.39325 22.5 9.39455 22.5 9.39586C22.5 9.39651 22.5 9.39749 22.5 9.39781C22.5 9.39879 22.5 9.39977 20.5 9.39977C18.5 9.39978 18.5 9.40076 18.5 9.40174C18.5 9.40206 18.5 9.40304 18.5 9.4037C18.5 9.40501 18.5 9.40632 18.5 9.40764C18.5 9.41028 18.5 9.41293 18.5001 9.4156C18.5001 9.42094 18.5002 9.42634 18.5003 9.43181C18.5004 9.44275 18.5007 9.45395 18.5011 9.46541C18.5018 9.48832 18.503 9.51231 18.5046 9.53731C18.508 9.58724 18.5134 9.64162 18.5217 9.69981C18.5382 9.81583 18.5668 9.94975 18.6151 10.0947C18.7141 10.3916 18.8915 10.7197 19.1858 11.014L22.0142 8.18556Z" fill="black" mask="url(#path-1-inside-1_12_208)"/>
</svg>
